<svg version="1.1" xmlns="http://www.w3.org/2000/svg" xmlns:xlink="http://www.w3.org/1999/xlink" width="800px" height="800px" viewBox="0,0,256,256"><g fill="#ffffff" fill-rule="nonzero" stroke="none" stroke-width="1" stroke-linecap="butt" stroke-linejoin="miter" stroke-miterlimit="10" stroke-dasharray="" stroke-dashoffset="0" font-family="none" font-weight="none" font-size="none" text-anchor="none" style="mix-blend-mode: normal"><g transform="scale(0.5,0.5)"><g><g><path d="M463.996,126.864l-123.804,-123.803c-1.961,-1.96 -4.618,-3.061 -7.389,-3.061h-237.077c-28.002,0 -50.782,22.782 -50.782,50.784v410.434c0,28.001 22.781,50.783 50.783,50.783h320.547c28.002,0 50.783,-22.781 50.783,-50.783v-326.965c-0.001,-2.771 -1.102,-5.429 -3.061,-7.389zM343.255,35.679l88.127,88.126h-58.242c-7.984,0 -15.49,-3.109 -21.134,-8.753c-5.643,-5.643 -8.752,-13.148 -8.751,-21.131zM446.158,461.217c0,16.479 -13.406,29.885 -29.884,29.885h-320.548c-16.479,0 -29.885,-13.406 -29.885,-29.885v-410.433c0.001,-16.479 13.407,-29.886 29.885,-29.886h226.631v73.021c-0.002,13.565 5.28,26.318 14.871,35.909c9.592,9.592 22.345,14.874 35.911,14.874h73.018v316.515z"></path></g></g><g><g><path d="M275.092,351.492h-4.678c-5.77,0 -10.449,4.678 -10.449,10.449c0,5.771 4.679,10.449 10.449,10.449h4.678c5.77,0 10.449,-4.678 10.449,-10.449c0,-5.771 -4.679,-10.449 -10.449,-10.449z"></path></g></g><g><g><path d="M236.61,351.492h-101.492c-5.77,0 -10.449,4.678 -10.449,10.449c0,5.771 4.679,10.449 10.449,10.449h101.492c5.77,0 10.449,-4.678 10.449,-10.449c0,-5.771 -4.678,-10.449 -10.449,-10.449z"></path></g></g><g><g><path d="M376.882,303.747h-241.763c-5.77,0 -10.449,4.678 -10.449,10.449c0,5.771 4.679,10.449 10.449,10.449h241.763c5.77,0 10.449,-4.678 10.449,-10.449c0,-5.771 -4.679,-10.449 -10.449,-10.449z"></path></g></g><g><g><path d="M376.882,256h-241.763c-5.77,0 -10.449,4.678 -10.449,10.449c0,5.771 4.679,10.449 10.449,10.449h241.763c5.77,0 10.449,-4.678 10.449,-10.449c0,-5.771 -4.679,-10.449 -10.449,-10.449z"></path></g></g><g><g><path d="M376.882,208.255h-241.763c-5.77,0 -10.449,4.678 -10.449,10.449c0,5.771 4.679,10.449 10.449,10.449h241.763c5.77,0 10.449,-4.678 10.449,-10.449c0,-5.771 -4.679,-10.449 -10.449,-10.449z"></path></g></g></g></g></svg>