<svg version="1.1" id="Layer_1" xmlns="http://www.w3.org/2000/svg" xmlns:xlink="http://www.w3.org/1999/xlink" x="0px" y="0px"
	 width="100%" viewBox="0 0 900 900" enable-background="new 0 0 900 900" xml:space="preserve">
<path fill="#FFFFFE" opacity="1.000000" stroke="none" 
	d="
M592.000000,901.000000 
	C394.666656,901.000000 197.833328,901.000000 1.000000,901.000000 
	C1.000000,601.000000 1.000000,301.000000 1.000000,1.000000 
	C301.000000,1.000000 601.000000,1.000000 901.000000,1.000000 
	C901.000000,301.000000 901.000000,601.000000 901.000000,901.000000 
	C798.166687,901.000000 695.333313,901.000000 592.000000,901.000000 
M289.657013,267.574768 
	C289.657013,267.574768 289.892426,268.002045 289.861450,268.678223 
	C289.937317,268.890717 290.013184,269.103241 289.900909,269.596252 
	C289.900909,269.596252 289.674469,269.368774 289.674469,269.368774 
	C289.674469,269.368774 290.099487,269.267853 290.638092,270.261658 
	C290.762970,270.617157 290.887817,270.972656 290.818726,271.856354 
	C291.107758,272.672882 291.396759,273.489380 291.710724,274.320892 
	C291.710724,274.320892 291.738983,274.311646 291.815796,274.895355 
	C291.953888,275.262665 292.091980,275.629974 292.099213,276.693085 
	C292.557892,277.753265 293.016571,278.813477 293.281769,280.585236 
	C293.432159,281.044891 293.582520,281.504547 293.545197,282.498993 
	C293.984131,283.108551 294.423065,283.718079 294.716309,285.021057 
	C295.156464,286.351257 295.596619,287.681488 295.876251,289.521973 
	C296.337128,290.665375 296.797974,291.808807 297.164276,293.655396 
	C297.320679,294.087219 297.477112,294.519012 297.581573,295.487244 
	C297.947968,296.090668 298.314392,296.694092 298.807678,297.257751 
	C298.807678,297.257751 298.685852,297.204468 298.568329,297.996704 
	C298.955597,298.985657 299.342834,299.974640 299.492981,301.591309 
	C300.037018,303.050751 300.581055,304.510223 301.032196,306.675629 
	C301.197845,307.109222 301.363495,307.542816 301.686920,308.716675 
	C303.577271,314.768494 305.467590,320.820282 307.280121,327.604065 
	C307.423462,328.056091 307.566803,328.508148 307.683624,329.630737 
	C308.384460,331.281311 309.085327,332.931885 309.596283,335.040771 
	C309.558868,335.392090 309.658386,335.698975 309.712982,336.552917 
	C311.872620,343.347626 314.032227,350.142303 316.082397,357.752502 
	C316.363068,358.482330 316.643738,359.212158 316.945007,360.582245 
	C317.561920,362.125458 318.178833,363.668701 318.897125,365.152344 
	C318.897125,365.152344 318.806061,365.077972 318.661591,365.762909 
	C318.826141,366.185089 318.990692,366.607239 319.088593,367.596069 
	C319.808838,369.714905 320.529114,371.833740 321.140594,374.717896 
	C321.380127,375.147430 321.619659,375.576935 321.835266,376.697205 
	C322.487885,378.608917 323.140503,380.520599 323.645508,382.956940 
	C323.737000,383.303986 323.828522,383.651031 323.839783,384.658600 
	C324.164307,384.942017 324.488800,385.225464 324.645386,386.131561 
	C324.772308,386.757629 324.899231,387.383698 324.856232,388.572937 
	C326.162445,392.174255 327.468658,395.775574 328.627747,399.915100 
	C328.726166,400.268555 328.824615,400.622040 328.763336,401.564545 
	C331.729187,407.748077 334.695068,413.931580 337.736328,420.782837 
	C338.528992,421.856384 339.321686,422.929932 340.080994,424.561523 
	C340.362457,424.772064 340.643951,424.982605 341.078888,425.647705 
	C341.272827,425.945709 341.547272,426.083954 342.032318,426.546875 
	C342.309601,426.714325 342.586884,426.881775 343.072144,427.659515 
	C344.024353,428.495972 344.976562,429.332397 346.195709,430.730377 
	C347.397400,431.515198 348.599091,432.299988 350.085083,433.695374 
	C353.392944,435.457184 356.700775,437.219025 360.299469,439.203888 
	C360.299469,439.203888 360.659943,439.137482 360.972443,439.708832 
	C362.336761,440.237427 363.701080,440.766052 365.692871,441.665222 
	C366.171967,441.632629 366.651093,441.600037 367.488922,441.963593 
	C368.010376,442.076324 368.531830,442.189087 369.594147,442.804596 
	C370.082550,442.804535 370.570984,442.804474 371.750031,443.089508 
	C381.829224,443.383179 391.908417,443.676849 402.799561,444.131378 
	C403.897858,444.075958 404.996124,444.020538 406.841614,444.178375 
	C410.862823,444.107147 414.884064,444.035950 419.745880,444.127289 
	C421.167572,444.076111 422.589264,444.024933 424.785248,444.190948 
	C435.915497,444.202881 447.045807,444.248962 458.175934,444.219727 
	C482.088745,444.156921 506.001434,444.055328 530.455505,444.107422 
	C530.632751,444.050568 530.810059,443.993683 531.788757,444.122437 
	C532.880188,444.071106 533.971558,444.019806 535.829041,444.184906 
	C547.244629,444.184906 558.660217,444.184906 570.061646,444.184906 
	C570.061646,433.737885 570.061646,423.735260 570.061646,413.870972 
	C553.110901,413.870972 536.532593,413.870972 519.125610,413.677948 
	C517.431763,413.740204 515.737915,413.802490 513.274902,413.593933 
	C496.502075,413.683105 479.729218,413.772247 462.188507,413.665741 
	C461.140381,413.731262 460.092255,413.796814 458.274963,413.593170 
	C451.835327,413.682892 445.395691,413.772614 438.188385,413.666168 
	C437.140411,413.731201 436.092438,413.796234 434.275787,413.590302 
	C427.837219,413.685272 421.398621,413.780243 414.111084,413.683380 
	C412.087708,413.746338 410.064331,413.809296 407.271179,413.604248 
	C397.181000,413.404572 387.090851,413.204926 376.648376,412.735291 
	C376.648376,412.735291 376.226929,412.874237 375.583954,412.606415 
	C372.711914,411.174408 369.839905,409.742401 366.601562,407.858459 
	C366.409607,407.885864 366.217651,407.913269 366.087341,407.970673 
	C366.087341,407.970673 366.115692,407.908203 365.619232,407.498077 
	C364.735321,406.442322 363.851410,405.386536 362.688354,403.819122 
	C362.231049,403.496460 361.773743,403.173767 361.293518,402.229950 
	C361.214264,401.827545 361.135010,401.425110 361.254333,400.467621 
	C360.316467,397.657104 359.378601,394.846588 358.264954,391.509338 
	C372.159790,388.850433 384.992401,386.394806 398.673706,383.942291 
	C421.753052,379.269165 444.819061,374.528656 467.917450,369.951630 
	C479.319458,367.692291 490.801849,365.839996 502.210876,363.613953 
	C516.517822,360.822510 530.785339,357.828552 545.072937,354.937500 
	C553.468811,353.238617 561.870789,351.569855 569.895874,349.962494 
	C569.895874,323.310028 569.895874,297.443054 569.895874,271.330170 
	C568.267578,271.330170 567.120972,271.330048 565.974304,271.330200 
	C504.011169,271.337646 442.048004,271.348267 380.084869,271.350616 
	C362.429291,271.351288 344.773254,271.381531 327.118866,271.229675 
	C325.425354,271.215088 322.801971,270.449005 322.230408,269.255707 
	C320.512939,265.670197 319.522858,261.722626 318.385162,257.876007 
	C316.255676,250.675842 314.221954,243.447342 312.220306,236.480835 
	C293.960693,236.480835 276.512756,236.480835 258.226898,236.480835 
	C259.394135,239.940353 260.410370,242.952286 261.678802,246.696960 
	C262.772430,249.854187 261.350311,254.284576 266.965363,255.485245 
	C268.297516,255.377869 269.629639,255.270477 271.328003,255.427216 
	C271.897644,255.332718 272.467255,255.238235 273.805817,255.334534 
	C274.853851,255.274933 275.901917,255.215332 277.586029,255.420486 
	C279.411682,255.334305 281.237305,255.248123 283.581604,255.358047 
	C283.943451,255.311371 284.305298,255.264679 285.136627,255.795334 
	C286.242523,258.148804 287.348419,260.502258 288.379120,263.617889 
	C288.565857,264.067993 288.752563,264.518097 288.874603,265.461212 
	C289.189667,266.036194 289.504700,266.611176 289.921967,267.133301 
	C289.921967,267.133301 289.809052,267.111237 289.657013,267.574768 
M237.818344,584.559753 
	C237.531555,584.383667 237.244751,584.207581 236.558472,583.773926 
	C236.307922,583.570923 236.111404,583.324768 235.947556,582.330811 
	C232.204727,578.217224 228.005066,575.126709 221.242279,576.143616 
	C220.496918,576.082703 219.751541,576.021790 218.883148,575.223328 
	C217.136292,574.513855 215.292908,573.044495 213.662491,573.251526 
	C210.176483,573.694397 206.840088,575.192932 203.371262,575.919312 
	C196.885513,577.277466 190.968063,579.090332 186.606674,584.865967 
	C179.265182,594.588013 176.851318,605.342957 178.225769,617.170959 
	C178.296722,617.781433 179.522812,618.257751 180.085754,618.851013 
	C180.085754,618.851013 180.222397,618.849060 180.061478,619.643982 
	C181.431503,622.386719 182.801544,625.129517 184.013382,628.005554 
	C184.013382,628.005554 184.161392,627.862061 184.044861,628.638489 
	C185.099442,634.785828 196.021439,642.376099 203.219437,641.614502 
	C204.143295,641.758362 205.067154,641.902161 206.148575,642.774658 
	C208.431183,642.861084 210.713791,642.947449 213.662399,643.045593 
	C214.103134,643.092712 214.543869,643.139832 215.567581,643.700134 
	C216.050156,643.798462 216.608856,644.106934 217.003952,643.963867 
	C223.531479,641.599060 230.186249,639.491577 236.445312,636.546143 
	C237.994553,635.817017 240.967239,632.563721 237.058929,629.944275 
	C237.058929,629.944275 237.073517,629.862122 237.076370,629.140015 
	C235.634247,627.824768 234.192123,626.509583 232.070251,625.116150 
	C231.387024,625.120728 230.703781,625.125305 229.679977,624.596802 
	C228.166061,625.373535 226.313034,625.824036 225.197266,626.983826 
	C220.532867,631.832214 205.844589,630.565247 202.611618,627.610229 
	C195.817963,621.400513 189.890091,614.691833 192.861404,604.276184 
	C193.252365,602.905640 192.881912,601.317871 192.924103,599.418640 
	C192.924103,599.418640 193.114212,599.048218 193.805939,598.955200 
	C195.032455,597.918457 196.695404,597.120300 197.414001,595.805847 
	C201.770248,587.837463 219.567459,585.425537 225.484985,591.243286 
	C226.556519,592.296753 228.763641,592.195068 230.923721,592.867249 
	C231.891754,592.865967 232.859787,592.864746 234.550430,592.933533 
	C236.127991,591.617798 238.025558,590.518372 239.130676,588.883301 
	C239.593811,588.198059 238.377350,586.377563 237.989014,585.002441 
	C237.989014,585.002441 237.930176,585.071777 237.818344,584.559753 
M458.639771,635.993652 
	C459.847046,634.742004 461.435760,633.687012 462.199036,632.206421 
	C466.770538,623.339111 471.115540,614.355408 475.618805,605.452332 
	C477.015625,602.690857 478.668945,600.059021 480.204834,597.367859 
	C480.718018,597.563904 481.231171,597.760010 481.744354,597.956055 
	C481.879089,599.709045 482.124023,601.461548 482.130585,603.214966 
	C482.171844,614.213562 482.113403,625.212708 482.198730,636.210815 
	C482.219788,638.924072 480.915436,642.639404 486.260712,642.029114 
	C490.047791,641.596802 494.065674,643.134338 493.862885,636.375671 
	C493.378448,620.225830 493.711548,604.051086 493.736786,587.886414 
	C493.755371,575.960205 493.779022,576.087830 481.558594,576.857788 
	C477.842072,577.091797 475.419250,578.115112 473.979004,581.821411 
	C472.179962,586.451111 469.832153,590.870789 467.661560,595.352173 
	C464.367065,602.153992 461.021179,608.930908 457.119049,616.898621 
	C455.477600,614.299927 454.505585,613.040100 453.825348,611.638611 
	C449.545715,602.821838 444.799866,594.178955 441.276855,585.065430 
	C438.827545,578.729431 435.349823,575.851685 428.686066,576.823669 
	C427.707336,576.966492 426.681976,576.916565 425.690643,576.823364 
	C421.742218,576.452209 420.129395,577.890259 420.174072,582.160400 
	C420.365662,600.459351 420.379120,618.763733 420.120148,637.061340 
	C420.059204,641.367371 421.805664,642.049194 425.415619,641.959290 
	C428.835693,641.873962 431.487915,642.074646 431.358704,637.142639 
	C431.044525,625.152466 431.256439,613.148132 431.290588,601.149658 
	C431.295471,599.442322 431.490570,597.735535 431.597656,596.028503 
	C432.050323,595.895447 432.502991,595.762390 432.955658,595.629333 
	C434.448181,598.273560 436.071167,600.853516 437.409637,603.573547 
	C442.104828,613.115112 446.775513,622.670471 451.293060,632.296814 
	C452.699097,635.293030 454.646881,636.726074 458.639771,635.993652 
M391.418060,611.504028 
	C391.418060,621.441589 391.418060,631.379089 391.418060,641.855652 
	C394.478149,641.855652 396.891052,642.282959 399.028168,641.699707 
	C400.369293,641.333740 402.251465,639.461365 402.266022,638.245300 
	C402.495667,619.107544 402.513458,599.966248 402.363373,580.827454 
	C402.353882,579.614441 400.666656,577.492676 399.587585,577.375061 
	C395.636566,576.944458 391.593140,576.957581 387.627228,577.299011 
	C386.338562,577.409973 384.649750,578.779785 384.047638,580.014465 
	C379.609192,589.116028 375.445862,598.351135 371.090332,607.493958 
	C369.737671,610.333374 368.059174,613.017578 365.937683,616.839600 
	C364.082153,613.417786 362.826752,611.325623 361.780182,609.133850 
	C357.345123,599.845520 353.075043,590.476318 348.482239,581.267456 
	C347.647614,579.594055 345.698517,577.563843 344.068604,577.373962 
	C339.508972,576.842590 334.847015,577.188965 329.843445,577.188965 
	C329.843445,598.942627 329.843445,620.155090 329.843445,641.598145 
	C331.237152,641.726929 332.358063,641.900940 333.481964,641.922852 
	C340.342865,642.056702 340.350922,642.045166 340.356598,635.288391 
	C340.366180,623.797974 340.343536,612.307495 340.392273,600.817261 
	C340.399109,599.205933 340.733185,597.596130 340.915771,595.985596 
	C343.090546,597.416504 344.085510,598.914368 344.889679,600.508362 
	C350.129974,610.895569 355.205780,621.368896 360.656799,631.643616 
	C361.619019,633.457336 364.109589,635.575745 365.861542,635.547119 
	C367.680573,635.517273 370.161469,633.425232 371.138397,631.588928 
	C376.138336,622.190674 380.719543,612.570312 385.508423,603.058472 
	C386.792938,600.507263 388.292542,598.064331 389.693390,595.571716 
	C390.264221,595.687683 390.835022,595.803711 391.405853,595.919739 
	C391.405853,600.781738 391.405853,605.643799 391.418060,611.504028 
M571.429810,591.514709 
	C571.431030,606.837646 571.495117,622.161072 571.381165,637.483154 
	C571.357971,640.606628 572.136658,642.206848 575.566345,641.874268 
	C577.773438,641.660217 580.018127,641.834045 582.351318,641.834045 
	C582.351318,635.423401 582.406921,629.937500 582.327576,624.453491 
	C582.288757,621.766968 583.318970,620.639893 586.117676,620.473511 
	C592.837219,620.073853 598.979858,620.179626 602.252625,627.763428 
	C603.601746,630.889709 606.199158,633.473938 608.207886,636.319580 
	C612.430664,642.301880 617.801392,643.726990 625.382812,640.693298 
	C623.296021,637.646423 621.265991,634.628113 619.178711,631.649841 
	C616.993347,628.531738 614.878601,625.351440 612.500061,622.385071 
	C610.284363,619.621765 611.031738,617.791565 613.959290,616.597046 
	C621.192871,613.645813 624.684509,603.668152 623.302002,593.726440 
	C622.059021,584.788208 617.419617,579.644104 607.427979,578.504456 
	C596.410950,577.247925 585.218201,577.466309 574.098267,577.310059 
	C573.244080,577.298035 571.742615,579.337952 571.608765,580.542603 
	C571.242859,583.835144 571.447449,587.191040 571.429810,591.514709 
M247.650558,612.165833 
	C248.780960,625.013489 255.083511,634.546509 266.847626,639.672791 
	C279.513977,645.192139 292.121033,643.928589 303.164551,635.568420 
	C315.992615,625.857361 319.503967,607.112427 311.521118,592.742920 
	C303.221710,577.803589 287.900696,572.614075 271.792084,576.787964 
	C257.260834,580.553223 246.474655,593.007751 247.650558,612.165833 
M93.524208,576.821655 
	C90.193253,576.822876 86.857010,576.942383 83.532768,576.793640 
	C79.837746,576.628235 78.659348,578.236023 78.687645,581.871277 
	C78.831535,600.357056 78.832977,618.844910 78.713776,637.330933 
	C78.691429,640.797119 79.808327,641.994446 83.311844,641.955444 
	C91.966827,641.859070 100.626183,642.227356 109.282928,642.192932 
	C114.684753,642.171448 120.085022,641.757324 125.669647,641.511292 
	C125.555389,639.401978 125.161430,638.015503 125.470413,636.809143 
	C126.773575,631.721069 123.889793,631.288574 119.998276,631.369934 
	C113.172737,631.512634 106.342079,631.395325 99.513687,631.419800 
	C88.530685,631.459106 90.381134,631.958008 90.252525,622.000916 
	C90.160851,614.903198 90.474686,614.595337 97.426811,614.533875 
	C105.187073,614.465271 112.948402,614.518066 120.546936,614.518066 
	C122.283348,605.187012 121.905159,604.701782 113.793182,604.731995 
	C109.796135,604.746887 105.798920,604.711731 101.801781,604.710022 
	C90.187439,604.705078 90.365532,604.704041 90.152985,593.059082 
	C90.073654,588.712402 91.808456,587.584167 95.743881,587.679626 
	C103.400543,587.865540 111.064476,587.766724 118.725365,587.758911 
	C124.871071,587.752625 125.132004,587.472351 124.930450,581.171631 
	C124.894440,580.045898 124.692169,578.925476 124.457253,576.823853 
	C114.389816,576.823853 104.453171,576.823853 93.524208,576.821655 
M721.914001,641.971436 
	C732.165100,641.971436 742.416199,641.971436 752.916260,641.971436 
	C752.916260,638.303345 752.916260,635.090027 752.916260,631.928467 
	C752.052612,631.712280 751.576599,631.491211 751.099548,631.488831 
	C743.607544,631.450684 736.113708,631.532043 728.623535,631.403625 
	C716.641785,631.198120 718.832031,633.530212 717.820557,620.683472 
	C717.441956,615.874084 719.226257,614.242554 724.072571,614.451111 
	C732.322449,614.806213 740.598633,614.548889 748.956543,614.548889 
	C749.128906,612.716492 749.166565,611.736267 749.320679,610.774780 
	C750.074829,606.070312 748.310547,604.136414 743.377625,604.552185 
	C738.747498,604.942444 734.059875,604.657288 729.397583,604.658997 
	C718.052979,604.663147 718.241760,604.658569 718.110535,593.288574 
	C718.058044,588.734741 719.879089,587.563110 724.042419,587.688354 
	C731.861450,587.923767 739.692871,587.860779 747.516724,587.751465 
	C749.784241,587.719788 752.991577,588.473450 752.433777,584.191528 
	C752.018982,581.007385 753.683899,576.747925 747.849854,576.801331 
	C735.695618,576.912598 723.539856,576.889282 711.384888,576.865540 
	C708.094788,576.859131 706.691772,578.117249 706.724426,581.637329 
	C706.894104,599.942078 706.899780,618.248718 706.864685,636.554565 
	C706.857117,640.516174 707.819336,642.938782 712.513367,642.287170 
	C715.295837,641.900879 718.161682,642.114624 721.914001,641.971436 
M638.902283,592.412598 
	C637.679688,596.500061 635.932495,600.511780 635.329163,604.688721 
	C633.205383,619.392395 639.215576,631.893555 651.615906,638.648010 
	C663.333008,645.030273 678.665771,644.873108 689.846985,635.348938 
	C692.267151,633.287415 694.253723,631.502014 691.456482,628.473572 
	C689.145630,625.971680 686.904114,623.346802 683.184143,626.788208 
	C677.929382,631.649597 671.654724,632.563904 664.716370,631.470154 
	C655.076965,629.950623 650.021790,623.537842 647.084839,615.170593 
	C644.538452,607.916260 646.250488,600.885742 650.949524,594.998474 
	C658.740051,585.238159 673.050415,583.584290 683.142334,590.862488 
	C687.555603,594.045410 689.622253,593.729736 692.543640,589.667114 
	C695.343384,585.773499 692.365845,584.258301 689.878906,582.176941 
	C677.489014,571.808228 650.952454,572.281189 638.902283,592.412598 
M541.493225,642.227234 
	C545.321960,642.252625 549.190613,641.940063 552.969788,642.385925 
	C558.098755,642.991028 558.007141,639.838623 558.347351,636.312439 
	C558.744263,632.198608 556.993774,631.150574 553.208801,631.235107 
	C544.555969,631.428345 535.892578,631.427917 527.241943,631.192566 
	C525.631592,631.148743 523.058289,629.985413 522.631470,628.750549 
	C519.337036,619.218384 523.023560,614.326782 532.933411,614.588623 
	C534.092041,614.619141 535.244019,614.896973 536.402832,614.930664 
	C540.725220,615.056274 545.048828,615.169373 549.372681,615.208679 
	C554.041077,615.251099 553.301819,611.813171 553.489136,608.845642 
	C553.692810,605.618713 552.421936,604.356323 549.150696,604.470581 
	C543.829834,604.656616 538.498108,604.528870 533.170959,604.535950 
	C521.741882,604.551086 521.838440,604.554749 522.200806,592.887451 
	C522.305115,589.528809 523.371277,588.106201 526.884583,588.174561 
	C535.205383,588.336548 543.548340,587.889893 551.850098,588.316345 
	C557.477112,588.605347 556.885010,585.021118 557.218384,581.589783 
	C557.581848,577.848450 555.890991,576.633850 552.264893,576.671692 
	C539.946655,576.800354 527.625244,576.779846 515.306946,576.641174 
	C511.791290,576.601562 510.717255,577.983826 510.736115,581.390808 
	C510.839417,600.032227 510.864716,618.675659 510.673981,637.315918 
	C510.631805,641.439758 512.328064,642.471130 516.025269,642.386902 
	C524.178955,642.201050 532.338318,642.264404 541.493225,642.227234 
M355.031494,480.548920 
	C354.307831,500.209869 372.415527,515.203735 391.515472,510.320068 
	C411.476929,505.216125 420.963348,483.518768 409.546082,465.421692 
	C402.642273,454.478699 389.712433,449.367798 376.348633,452.923584 
	C365.839661,455.719757 355.063354,466.573669 355.031494,480.548920 
M563.849609,499.540253 
	C565.599976,496.632568 567.855225,493.912537 569.016846,490.786102 
	C575.481140,473.387970 561.041504,452.463501 542.333374,451.667114 
	C527.986877,451.056396 516.188171,461.097168 512.640930,471.594238 
	C507.989990,485.357391 513.375610,499.575928 525.589966,506.907410 
	C538.463135,514.634277 554.782593,511.463257 563.849609,499.540253 
M150.524887,609.658142 
	C146.252686,609.658142 141.980499,609.658142 137.411728,609.658142 
	C137.411728,613.127075 137.411728,615.866150 137.411728,619.291565 
	C146.458313,619.291565 155.224365,619.193970 163.986267,619.341797 
	C167.284561,619.397400 168.589325,618.031189 168.285172,614.910706 
	C168.016052,612.149292 168.337036,608.983948 163.914749,609.277161 
	C159.792358,609.550537 155.651184,609.540527 150.524887,609.658142 
z"/>
<path fill="#053067" opacity="1.000000" stroke="none" 
	d="
M342.864136,427.049225 
	C342.586884,426.881775 342.309601,426.714325 342.251465,426.085022 
	C343.794983,422.183990 341.938660,420.708405 338.908508,419.607239 
	C337.574188,417.531616 336.286499,415.777496 335.001434,413.610992 
	C333.995178,410.802216 332.986328,408.405792 331.703735,405.758575 
	C331.277161,404.019470 331.124298,402.531158 330.976318,400.693848 
	C330.375366,399.569275 329.769501,398.793732 329.122620,397.688812 
	C329.049774,396.918152 329.017944,396.476837 329.238068,395.815033 
	C328.660614,393.728882 327.831238,391.863220 327.000916,389.998779 
	C327.000000,390.000000 327.002441,389.998993 327.003235,389.567780 
	C326.322144,386.407410 325.640228,383.678253 324.966064,380.631714 
	C324.975220,379.890533 324.976654,379.466736 324.950623,378.680756 
	C323.966339,376.880005 323.009491,375.441437 322.005310,373.640900 
	C321.628784,371.870636 321.299622,370.462311 320.907013,368.847931 
	C320.709534,368.372528 320.501404,368.185913 320.161926,367.800354 
	C320.069336,367.330414 320.033997,367.142120 319.972778,366.649628 
	C319.566650,365.922974 319.186340,365.500458 318.806061,365.077972 
	C318.806061,365.077972 318.897125,365.152344 318.929321,364.819458 
	C318.978058,363.991913 318.994598,363.497223 319.005615,362.736694 
	C318.987823,362.294006 318.975555,362.117188 318.968140,361.624817 
	C318.973663,360.889160 318.974335,360.469086 318.940460,359.657867 
	C317.603119,355.834747 316.300354,352.402710 314.993256,348.604797 
	C314.984894,347.506958 314.980835,346.775085 314.881714,345.815277 
	C314.593964,345.301727 314.331665,345.112885 313.997192,345.012207 
	C313.994720,345.003601 313.977722,344.997925 313.969238,344.708679 
	C313.666901,343.958588 313.372986,343.497711 313.052399,342.662781 
	C312.340698,340.211761 311.655670,338.134796 310.987732,335.674011 
	C312.002777,330.152039 310.465942,325.776611 306.875031,321.690735 
	C306.491211,320.608215 306.232330,319.816681 305.911530,318.832367 
	C305.726410,318.385437 305.532806,318.208313 305.201355,317.729004 
	C305.081543,316.581818 305.029083,315.813812 304.985016,314.705750 
	C304.678040,313.582642 304.362701,312.799652 304.028473,311.686890 
	C303.994476,310.917023 303.979370,310.476898 304.062225,309.784424 
	C303.771698,309.022125 303.383240,308.512177 302.997406,308.001099 
	C303.000000,308.000000 302.997742,308.005188 302.981415,307.705780 
	C302.648407,306.933105 302.331757,306.459839 302.012726,305.657440 
	C302.004303,304.889648 301.998230,304.451019 302.246246,303.792328 
	C301.699341,301.167816 303.342285,297.299438 298.685852,297.204468 
	C298.685852,297.204468 298.807678,297.257751 298.857513,296.905487 
	C298.938629,296.037506 298.969910,295.521820 299.227661,294.837952 
	C298.998505,294.106659 298.542847,293.543488 298.066284,292.655212 
	C298.019562,291.896729 297.993774,291.463440 298.174530,290.801270 
	C296.963104,286.718018 295.545166,282.863586 294.070831,278.702942 
	C293.419617,277.596924 292.824829,276.797119 292.230072,275.997284 
	C292.091980,275.629974 291.953888,275.262665 292.122803,274.487427 
	C295.064270,268.764587 292.976807,264.652435 289.065125,260.672852 
	C289.014038,259.915619 288.995270,259.482178 288.986847,258.666809 
	C288.323029,257.195038 287.648865,256.105225 286.723877,254.993500 
	C286.306305,254.952881 286.139496,254.934174 285.921478,254.574081 
	C283.902222,253.832336 281.934174,253.431961 279.599976,253.027039 
	C278.501404,253.021194 277.769012,253.019882 276.627502,253.010086 
	C275.130249,253.009659 274.042175,253.017731 272.636658,253.022522 
	C271.896179,253.023102 271.473114,253.026993 270.665161,253.020844 
	C268.210236,252.340973 266.140228,251.671127 264.049927,250.676483 
	C264.008850,249.918259 263.988129,249.484848 263.979553,248.707214 
	C263.662750,247.573990 263.333740,246.784988 263.002380,245.997925 
	C263.000000,245.999878 263.006287,245.994797 263.004120,245.641846 
	C262.301300,239.377060 264.078400,237.678680 269.728333,238.713913 
	C271.186005,238.980988 272.705200,238.981918 274.196411,238.984894 
	C284.527527,239.005493 294.859344,239.059891 305.189514,238.956848 
	C308.672119,238.922089 311.033020,240.286133 311.910431,243.609726 
	C313.716339,250.450516 314.831696,257.522980 317.223022,264.141754 
	C318.712891,268.265533 319.670349,274.040527 326.577057,273.389343 
	C330.643066,273.006012 334.755646,273.025818 338.847443,273.022003 
	C368.591064,272.994171 398.334869,272.949585 428.078156,273.050964 
	C434.535889,273.072998 440.991394,273.913788 447.448456,273.920776 
	C453.571503,273.927399 459.697113,273.036560 465.818146,273.076233 
	C474.942719,273.135315 484.064117,273.917236 493.187103,273.922119 
	C501.976379,273.926819 510.764069,273.133179 519.555847,273.051208 
	C534.575989,272.911163 549.600281,272.968994 564.617371,273.242889 
	C565.765747,273.263824 567.840698,275.640167 567.852112,276.936035 
	C568.049988,299.429535 568.028809,321.925476 567.901917,344.420044 
	C567.894043,345.824524 566.719727,348.370117 565.920776,348.438812 
	C560.111389,348.938293 554.583069,350.258698 548.946960,351.808807 
	C541.002686,353.993805 532.660217,354.687042 524.547241,356.313385 
	C514.233643,358.380920 504.029572,361.023102 493.682892,362.888702 
	C485.801514,364.309845 477.826111,364.933472 469.963287,366.853455 
	C456.799957,370.067688 443.429749,372.469574 430.096039,374.940430 
	C419.192474,376.960999 408.187958,378.439026 397.290649,380.489532 
	C394.730774,380.971222 392.422699,382.790955 389.562042,383.998962 
	C386.012177,384.342957 382.853516,384.455780 379.795105,385.068878 
	C372.662506,386.498810 365.558105,388.089630 358.504791,389.863708 
	C357.787415,390.044159 357.494629,391.912598 357.003174,393.375793 
	C357.335999,395.503815 357.670441,397.253784 358.002441,399.254944 
	C357.999908,399.673615 357.999847,399.841095 357.832520,400.097046 
	C357.787048,400.451416 357.908844,400.717346 358.408752,400.986145 
	C359.543213,401.000275 360.299500,401.011475 361.055786,401.022705 
	C361.135010,401.425110 361.214264,401.827545 361.023102,402.707184 
	C361.503418,404.132721 362.254150,405.080994 363.066772,406.377350 
	C364.124359,407.119690 365.120026,407.513947 366.115692,407.908203 
	C366.115692,407.908203 366.087341,407.970673 366.125122,408.159485 
	C366.294891,408.621521 366.506592,408.800323 366.945923,409.120270 
	C367.393005,409.568909 367.692230,409.782013 368.014984,410.296814 
	C368.372345,411.063751 368.706146,411.528931 369.346436,412.131226 
	C371.096649,412.841644 372.540405,413.414978 374.192657,414.252533 
	C375.270203,414.682922 376.139191,414.849121 377.193298,415.256287 
	C378.562561,415.322693 379.746765,415.148193 381.215302,414.982300 
	C381.689209,414.985291 381.878754,414.979736 382.532654,414.976227 
	C391.308136,414.974945 399.619293,414.971619 408.198822,415.250824 
	C410.667572,415.344635 412.867920,415.155853 415.532349,414.971619 
	C422.310669,414.974884 428.624908,414.973663 435.161987,415.236023 
	C436.610474,415.323975 437.836090,415.148315 439.526245,414.976166 
	C446.306732,414.977325 452.622711,414.974976 459.161133,415.235870 
	C460.609253,415.323486 461.835022,415.147888 463.525330,414.975891 
	C470.311829,414.983673 476.633759,414.987854 483.055695,415.379395 
	C486.594055,417.323273 490.006104,418.543213 493.510468,414.989502 
	C500.630432,414.982056 507.284668,414.977783 514.217041,415.260925 
	C516.902161,416.013947 519.314148,416.853973 521.714417,416.821716 
	C523.498840,416.797760 525.268005,415.643005 527.509888,414.988525 
	C540.634216,414.989258 553.292725,414.993439 566.000488,415.337738 
	C567.033997,416.466156 568.018250,417.254425 569.004272,418.493835 
	C569.004150,425.412384 569.038513,431.880219 568.957581,438.346619 
	C568.946472,439.232483 568.361389,440.111176 567.658081,440.999451 
	C566.294250,441.154297 565.313660,441.436432 564.334351,441.432007 
	C536.665405,441.307281 508.996521,441.123047 481.327515,441.090607 
	C479.870300,441.088898 478.411621,442.333313 476.533875,443.000183 
	C474.425323,443.001007 472.736450,442.999298 470.942993,442.602509 
	C469.340454,441.806610 467.845764,441.073425 466.344116,441.058777 
	C456.551697,440.963318 446.757782,441.023682 436.541138,441.030701 
	C434.424561,441.030029 432.731171,441.031708 430.565399,441.022919 
	C414.102325,441.010315 398.111511,440.976868 382.121216,441.051361 
	C380.394867,441.059418 378.671387,441.693665 376.721191,442.032410 
	C376.495819,442.027374 376.045013,442.021423 375.894440,441.795166 
	C375.169281,441.700592 374.594696,441.832336 373.684174,441.969482 
	C372.900269,441.974335 372.452332,441.973816 371.933533,441.617920 
	C369.567749,440.842285 367.272797,440.422058 364.609741,439.955261 
	C363.047729,439.651611 361.853851,439.394562 360.659943,439.137512 
	C360.659943,439.137482 360.299469,439.203888 360.135498,438.798126 
	C359.653381,437.927948 359.335236,437.463531 359.008179,436.670715 
	C358.333038,435.899292 357.666748,435.456207 356.675934,435.014282 
	C355.918762,435.025177 355.486145,435.034851 354.880127,434.793060 
	C354.142914,434.347260 353.579102,434.152924 352.840027,433.723145 
	C352.115021,433.313690 351.565338,433.139618 350.953308,432.619629 
	C349.242004,430.854279 347.593048,429.434814 345.646484,427.876862 
	C344.520660,427.508667 343.692413,427.278961 342.864136,427.049225 
z"/>
<path fill="#E76335" opacity="1.000000" stroke="none" 
	d="
M458.292175,636.069702 
	C454.646881,636.726074 452.699097,635.293030 451.293060,632.296814 
	C446.775513,622.670471 442.104828,613.115112 437.409637,603.573547 
	C436.071167,600.853516 434.448181,598.273560 432.955658,595.629333 
	C432.502991,595.762390 432.050323,595.895447 431.597656,596.028503 
	C431.490570,597.735535 431.295471,599.442322 431.290588,601.149658 
	C431.256439,613.148132 431.044525,625.152466 431.358704,637.142639 
	C431.487915,642.074646 428.835693,641.873962 425.415619,641.959290 
	C421.805664,642.049194 420.059204,641.367371 420.120148,637.061340 
	C420.379120,618.763733 420.365662,600.459351 420.174072,582.160400 
	C420.129395,577.890259 421.742218,576.452209 425.690643,576.823364 
	C426.681976,576.916565 427.707336,576.966492 428.686066,576.823669 
	C435.349823,575.851685 438.827545,578.729431 441.276855,585.065430 
	C444.799866,594.178955 449.545715,602.821838 453.825348,611.638611 
	C454.505585,613.040100 455.477600,614.299927 457.119049,616.898621 
	C461.021179,608.930908 464.367065,602.153992 467.661560,595.352173 
	C469.832153,590.870789 472.179962,586.451111 473.979004,581.821411 
	C475.419250,578.115112 477.842072,577.091797 481.558594,576.857788 
	C493.779022,576.087830 493.755371,575.960205 493.736786,587.886414 
	C493.711548,604.051086 493.378448,620.225830 493.862885,636.375671 
	C494.065674,643.134338 490.047791,641.596802 486.260712,642.029114 
	C480.915436,642.639404 482.219788,638.924072 482.198730,636.210815 
	C482.113403,625.212708 482.171844,614.213562 482.130585,603.214966 
	C482.124023,601.461548 481.879089,599.709045 481.744354,597.956055 
	C481.231171,597.760010 480.718018,597.563904 480.204834,597.367859 
	C478.668945,600.059021 477.015625,602.690857 475.618805,605.452332 
	C471.115540,614.355408 466.770538,623.339111 462.199036,632.206421 
	C461.435760,633.687012 459.847046,634.742004 458.292175,636.069702 
z"/>
<path fill="#E56032" opacity="1.000000" stroke="none" 
	d="
M391.411957,611.004883 
	C391.405853,605.643799 391.405853,600.781738 391.405853,595.919739 
	C390.835022,595.803711 390.264221,595.687683 389.693390,595.571716 
	C388.292542,598.064331 386.792938,600.507263 385.508423,603.058472 
	C380.719543,612.570312 376.138336,622.190674 371.138397,631.588928 
	C370.161469,633.425232 367.680573,635.517273 365.861542,635.547119 
	C364.109589,635.575745 361.619019,633.457336 360.656799,631.643616 
	C355.205780,621.368896 350.129974,610.895569 344.889679,600.508362 
	C344.085510,598.914368 343.090546,597.416504 340.915771,595.985596 
	C340.733185,597.596130 340.399109,599.205933 340.392273,600.817261 
	C340.343536,612.307495 340.366180,623.797974 340.356598,635.288391 
	C340.350922,642.045166 340.342865,642.056702 333.481964,641.922852 
	C332.358063,641.900940 331.237152,641.726929 329.843445,641.598145 
	C329.843445,620.155090 329.843445,598.942627 329.843445,577.188965 
	C334.847015,577.188965 339.508972,576.842590 344.068604,577.373962 
	C345.698517,577.563843 347.647614,579.594055 348.482239,581.267456 
	C353.075043,590.476318 357.345123,599.845520 361.780182,609.133850 
	C362.826752,611.325623 364.082153,613.417786 365.937683,616.839600 
	C368.059174,613.017578 369.737671,610.333374 371.090332,607.493958 
	C375.445862,598.351135 379.609192,589.116028 384.047638,580.014465 
	C384.649750,578.779785 386.338562,577.409973 387.627228,577.299011 
	C391.593140,576.957581 395.636566,576.944458 399.587585,577.375061 
	C400.666656,577.492676 402.353882,579.614441 402.363373,580.827454 
	C402.513458,599.966248 402.495667,619.107544 402.266022,638.245300 
	C402.251465,639.461365 400.369293,641.333740 399.028168,641.699707 
	C396.891052,642.282959 394.478149,641.855652 391.418060,641.855652 
	C391.418060,631.379089 391.418060,621.441589 391.411957,611.004883 
z"/>
<path fill="#E56134" opacity="1.000000" stroke="none" 
	d="
M571.427979,591.018311 
	C571.447449,587.191040 571.242859,583.835144 571.608765,580.542603 
	C571.742615,579.337952 573.244080,577.298035 574.098267,577.310059 
	C585.218201,577.466309 596.410950,577.247925 607.427979,578.504456 
	C617.419617,579.644104 622.059021,584.788208 623.302002,593.726440 
	C624.684509,603.668152 621.192871,613.645813 613.959290,616.597046 
	C611.031738,617.791565 610.284363,619.621765 612.500061,622.385071 
	C614.878601,625.351440 616.993347,628.531738 619.178711,631.649841 
	C621.265991,634.628113 623.296021,637.646423 625.382812,640.693298 
	C617.801392,643.726990 612.430664,642.301880 608.207886,636.319580 
	C606.199158,633.473938 603.601746,630.889709 602.252625,627.763428 
	C598.979858,620.179626 592.837219,620.073853 586.117676,620.473511 
	C583.318970,620.639893 582.288757,621.766968 582.327576,624.453491 
	C582.406921,629.937500 582.351318,635.423401 582.351318,641.834045 
	C580.018127,641.834045 577.773438,641.660217 575.566345,641.874268 
	C572.136658,642.206848 571.357971,640.606628 571.381165,637.483154 
	C571.495117,622.161072 571.431030,606.837646 571.427979,591.018311 
M582.034180,594.639771 
	C582.035522,598.627441 581.891846,602.623718 582.127258,606.597534 
	C582.197266,607.779602 583.355225,609.907593 583.974792,609.893188 
	C591.560303,609.716064 599.225952,609.775330 606.685059,608.597290 
	C611.087097,607.901978 612.639893,602.096741 611.878601,594.983582 
	C611.376770,590.294312 608.450562,588.301147 604.301697,587.838806 
	C599.214478,587.271912 594.089294,586.909851 588.972351,586.779724 
	C582.147522,586.606201 582.144165,586.738647 582.034180,594.639771 
z"/>
<path fill="#E56134" opacity="1.000000" stroke="none" 
	d="
M247.649872,611.720215 
	C246.474655,593.007751 257.260834,580.553223 271.792084,576.787964 
	C287.900696,572.614075 303.221710,577.803589 311.521118,592.742920 
	C319.503967,607.112427 315.992615,625.857361 303.164551,635.568420 
	C292.121033,643.928589 279.513977,645.192139 266.847626,639.672791 
	C255.083511,634.546509 248.780960,625.013489 247.649872,611.720215 
M258.889404,604.729431 
	C256.417664,619.365417 265.961670,628.768311 274.354919,631.646790 
	C284.746582,635.210632 295.076355,631.040710 301.410126,621.282776 
	C306.653534,613.204651 305.800598,600.739685 298.795593,593.567444 
	C292.659698,587.285034 285.471619,583.709839 275.988251,586.214233 
	C266.419342,588.741211 261.911011,595.357727 258.889404,604.729431 
z"/>
<path fill="#E56438" opacity="1.000000" stroke="none" 
	d="
M94.020370,576.822754 
	C104.453171,576.823853 114.389816,576.823853 124.457253,576.823853 
	C124.692169,578.925476 124.894440,580.045898 124.930450,581.171631 
	C125.132004,587.472351 124.871071,587.752625 118.725365,587.758911 
	C111.064476,587.766724 103.400543,587.865540 95.743881,587.679626 
	C91.808456,587.584167 90.073654,588.712402 90.152985,593.059082 
	C90.365532,604.704041 90.187439,604.705078 101.801781,604.710022 
	C105.798920,604.711731 109.796135,604.746887 113.793182,604.731995 
	C121.905159,604.701782 122.283348,605.187012 120.546936,614.518066 
	C112.948402,614.518066 105.187073,614.465271 97.426811,614.533875 
	C90.474686,614.595337 90.160851,614.903198 90.252525,622.000916 
	C90.381134,631.958008 88.530685,631.459106 99.513687,631.419800 
	C106.342079,631.395325 113.172737,631.512634 119.998276,631.369934 
	C123.889793,631.288574 126.773575,631.721069 125.470413,636.809143 
	C125.161430,638.015503 125.555389,639.401978 125.669647,641.511292 
	C120.085022,641.757324 114.684753,642.171448 109.282928,642.192932 
	C100.626183,642.227356 91.966827,641.859070 83.311844,641.955444 
	C79.808327,641.994446 78.691429,640.797119 78.713776,637.330933 
	C78.832977,618.844910 78.831535,600.357056 78.687645,581.871277 
	C78.659348,578.236023 79.837746,576.628235 83.532768,576.793640 
	C86.857010,576.942383 90.193253,576.822876 94.020370,576.822754 
z"/>
<path fill="#E56438" opacity="1.000000" stroke="none" 
	d="
M721.452026,642.015015 
	C718.161682,642.114624 715.295837,641.900879 712.513367,642.287170 
	C707.819336,642.938782 706.857117,640.516174 706.864685,636.554565 
	C706.899780,618.248718 706.894104,599.942078 706.724426,581.637329 
	C706.691772,578.117249 708.094788,576.859131 711.384888,576.865540 
	C723.539856,576.889282 735.695618,576.912598 747.849854,576.801331 
	C753.683899,576.747925 752.018982,581.007385 752.433777,584.191528 
	C752.991577,588.473450 749.784241,587.719788 747.516724,587.751465 
	C739.692871,587.860779 731.861450,587.923767 724.042419,587.688354 
	C719.879089,587.563110 718.058044,588.734741 718.110535,593.288574 
	C718.241760,604.658569 718.052979,604.663147 729.397583,604.658997 
	C734.059875,604.657288 738.747498,604.942444 743.377625,604.552185 
	C748.310547,604.136414 750.074829,606.070312 749.320679,610.774780 
	C749.166565,611.736267 749.128906,612.716492 748.956543,614.548889 
	C740.598633,614.548889 732.322449,614.806213 724.072571,614.451111 
	C719.226257,614.242554 717.441956,615.874084 717.820557,620.683472 
	C718.832031,633.530212 716.641785,631.198120 728.623535,631.403625 
	C736.113708,631.532043 743.607544,631.450684 751.099548,631.488831 
	C751.576599,631.491211 752.052612,631.712280 752.916260,631.928467 
	C752.916260,635.090027 752.916260,638.303345 752.916260,641.971436 
	C742.416199,641.971436 732.165100,641.971436 721.452026,642.015015 
z"/>
<path fill="#E56135" opacity="1.000000" stroke="none" 
	d="
M639.123901,592.119995 
	C650.952454,572.281189 677.489014,571.808228 689.878906,582.176941 
	C692.365845,584.258301 695.343384,585.773499 692.543640,589.667114 
	C689.622253,593.729736 687.555603,594.045410 683.142334,590.862488 
	C673.050415,583.584290 658.740051,585.238159 650.949524,594.998474 
	C646.250488,600.885742 644.538452,607.916260 647.084839,615.170593 
	C650.021790,623.537842 655.076965,629.950623 664.716370,631.470154 
	C671.654724,632.563904 677.929382,631.649597 683.184143,626.788208 
	C686.904114,623.346802 689.145630,625.971680 691.456482,628.473572 
	C694.253723,631.502014 692.267151,633.287415 689.846985,635.348938 
	C678.665771,644.873108 663.333008,645.030273 651.615906,638.648010 
	C639.215576,631.893555 633.205383,619.392395 635.329163,604.688721 
	C635.932495,600.511780 637.679688,596.500061 639.123901,592.119995 
z"/>
<path fill="#E56135" opacity="1.000000" stroke="none" 
	d="
M235.968903,583.035461 
	C236.111404,583.324768 236.307922,583.570923 236.796265,584.167725 
	C237.332748,584.731567 237.631454,584.901672 237.930176,585.071777 
	C237.930176,585.071777 237.989014,585.002441 237.951080,585.401001 
	C236.551361,588.154175 235.189590,590.508850 233.827820,592.863525 
	C232.859787,592.864746 231.891754,592.865967 230.530624,592.445068 
	C222.545975,585.208008 213.778275,584.282227 204.625458,587.698059 
	C199.333054,589.673218 194.658234,592.946716 193.114212,599.048218 
	C193.114212,599.048218 192.924103,599.418640 192.595184,599.842163 
	C186.810806,609.790649 192.163422,623.244141 200.952301,628.942017 
	C210.719437,635.274170 222.513931,633.636353 230.020554,625.129883 
	C230.703781,625.125305 231.387024,625.120728 232.482208,625.476685 
	C234.287277,627.178833 235.680389,628.520508 237.073517,629.862122 
	C237.073517,629.862122 237.058929,629.944275 237.063629,630.311157 
	C235.565781,632.500732 234.424606,635.070312 232.492477,636.005249 
	C226.825195,638.747681 220.843307,640.840027 214.984619,643.186890 
	C214.543869,643.139832 214.103134,643.092712 213.072388,642.740540 
	C210.318588,642.305664 208.154800,642.175842 205.991013,642.046021 
	C205.067154,641.902161 204.143295,641.758362 202.671600,641.274780 
	C194.587021,638.706116 189.687759,632.853271 184.161392,627.862061 
	C184.161392,627.862061 184.013382,628.005554 184.073914,627.570679 
	C182.830429,624.373535 181.526413,621.611328 180.222397,618.849060 
	C180.222397,618.849060 180.085754,618.851013 180.192871,618.373901 
	C180.231613,614.917664 180.108368,611.938599 180.104050,608.959473 
	C180.081512,593.376709 189.204849,581.237549 204.301956,577.502930 
	C209.040543,576.330688 214.095840,576.438843 219.006165,575.960815 
	C219.751541,576.021790 220.496918,576.082703 221.829941,576.392822 
	C226.934708,578.773193 231.451813,580.904358 235.968903,583.035461 
z"/>
<path fill="#0F2D55" opacity="1.000000" stroke="none" 
	d="
M389.998779,383.995117 
	C392.422699,382.790955 394.730774,380.971222 397.290649,380.489532 
	C408.187958,378.439026 419.192474,376.960999 430.096039,374.940430 
	C443.429749,372.469574 456.799957,370.067688 469.963287,366.853455 
	C477.826111,364.933472 485.801514,364.309845 493.682892,362.888702 
	C504.029572,361.023102 514.233643,358.380920 524.547241,356.313385 
	C532.660217,354.687042 541.002686,353.993805 548.946960,351.808807 
	C554.583069,350.258698 560.111389,348.938293 565.920776,348.438812 
	C566.719727,348.370117 567.894043,345.824524 567.901917,344.420044 
	C568.028809,321.925476 568.049988,299.429535 567.852112,276.936035 
	C567.840698,275.640167 565.765747,273.263824 564.617371,273.242889 
	C549.600281,272.968994 534.575989,272.911163 519.555847,273.051208 
	C510.764069,273.133179 501.976379,273.926819 493.187103,273.922119 
	C484.064117,273.917236 474.942719,273.135315 465.818146,273.076233 
	C459.697113,273.036560 453.571503,273.927399 447.448456,273.920776 
	C440.991394,273.913788 434.535889,273.072998 428.078156,273.050964 
	C398.334869,272.949585 368.591064,272.994171 338.847443,273.022003 
	C334.755646,273.025818 330.643066,273.006012 326.577057,273.389343 
	C319.670349,274.040527 318.712891,268.265533 317.223022,264.141754 
	C314.831696,257.522980 313.716339,250.450516 311.910431,243.609726 
	C311.033020,240.286133 308.672119,238.922089 305.189514,238.956848 
	C294.859344,239.059891 284.527527,239.005493 274.196411,238.984894 
	C272.705200,238.981918 271.186005,238.980988 269.728333,238.713913 
	C264.078400,237.678680 262.301300,239.377060 262.740662,245.633148 
	C262.128448,245.973022 261.777527,245.968628 261.426575,245.964233 
	C260.410370,242.952286 259.394135,239.940353 258.226898,236.480835 
	C276.512756,236.480835 293.960693,236.480835 312.220306,236.480835 
	C314.221954,243.447342 316.255676,250.675842 318.385162,257.876007 
	C319.522858,261.722626 320.512939,265.670197 322.230408,269.255707 
	C322.801971,270.449005 325.425354,271.215088 327.118866,271.229675 
	C344.773254,271.381531 362.429291,271.351288 380.084869,271.350616 
	C442.048004,271.348267 504.011169,271.337646 565.974304,271.330200 
	C567.120972,271.330048 568.267578,271.330170 569.895874,271.330170 
	C569.895874,297.443054 569.895874,323.310028 569.895874,349.962494 
	C561.870789,351.569855 553.468811,353.238617 545.072937,354.937500 
	C530.785339,357.828552 516.517822,360.822510 502.210876,363.613953 
	C490.801849,365.839996 479.319458,367.692291 467.917450,369.951630 
	C444.819061,374.528656 421.753052,379.269165 397.818420,383.915283 
	C394.641693,383.923920 392.320251,383.959534 389.998779,383.995117 
z"/>
<path fill="#DA714D" opacity="1.000000" stroke="none" 
	d="
M540.994263,642.226624 
	C532.338318,642.264404 524.178955,642.201050 516.025269,642.386902 
	C512.328064,642.471130 510.631805,641.439758 510.673981,637.315918 
	C510.864716,618.675659 510.839417,600.032227 510.736115,581.390808 
	C510.717255,577.983826 511.791290,576.601562 515.306946,576.641174 
	C527.625244,576.779846 539.946655,576.800354 552.264893,576.671692 
	C555.890991,576.633850 557.581848,577.848450 557.218384,581.589783 
	C556.885010,585.021118 557.477112,588.605347 551.850098,588.316345 
	C543.548340,587.889893 535.205383,588.336548 526.884583,588.174561 
	C523.371277,588.106201 522.305115,589.528809 522.200806,592.887451 
	C521.838440,604.554749 521.741882,604.551086 533.170959,604.535950 
	C538.498108,604.528870 543.829834,604.656616 549.150696,604.470581 
	C552.421936,604.356323 553.692810,605.618713 553.489136,608.845642 
	C553.301819,611.813171 554.041077,615.251099 549.372681,615.208679 
	C545.048828,615.169373 540.725220,615.056274 536.402832,614.930664 
	C535.244019,614.896973 534.092041,614.619141 532.933411,614.588623 
	C523.023560,614.326782 519.337036,619.218384 522.631470,628.750549 
	C523.058289,629.985413 525.631592,631.148743 527.241943,631.192566 
	C535.892578,631.427917 544.555969,631.428345 553.208801,631.235107 
	C556.993774,631.150574 558.744263,632.198608 558.347351,636.312439 
	C558.007141,639.838623 558.098755,642.991028 552.969788,642.385925 
	C549.190613,641.940063 545.321960,642.252625 540.994263,642.226624 
M513.140015,599.945312 
	C513.140015,613.144531 513.140015,626.343811 513.140015,640.019531 
	C521.781982,640.019531 529.832153,640.083862 537.880615,639.993469 
	C542.156799,639.945435 546.435974,639.411682 550.701904,639.529175 
	C552.715149,639.584595 554.708130,640.803894 555.032959,637.507202 
	C555.331421,634.477295 553.737793,633.893127 551.127136,633.921936 
	C542.633179,634.015930 534.137146,634.009216 525.642761,633.937256 
	C520.911743,633.897156 518.649963,631.202698 519.076172,626.656860 
	C519.270569,624.583740 519.255127,622.466370 519.088867,620.388733 
	C518.673401,615.195923 522.151306,610.827026 526.419739,611.090576 
	C533.033386,611.498962 539.657349,611.855713 546.279846,611.917053 
	C547.743713,611.930664 549.219910,610.619507 550.690430,609.918335 
	C549.252625,608.938477 547.873047,607.234558 546.366272,607.113525 
	C541.732117,606.741272 537.047241,606.885498 532.385742,606.989929 
	C519.253479,607.284241 518.684937,606.911499 519.041992,593.412842 
	C519.218994,586.720398 520.798096,585.052917 527.737000,585.043518 
	C535.232544,585.033386 542.733215,585.176331 550.218567,584.899109 
	C551.490356,584.851990 552.696289,583.026917 553.932617,582.023254 
	C552.673340,581.329773 551.422791,580.053833 550.153381,580.034790 
	C539.828674,579.879578 529.500366,579.948425 519.173157,579.972534 
	C513.981323,579.984680 512.891907,581.612549 513.391418,587.009460 
	C513.761963,591.013428 513.435547,595.081848 513.140015,599.945312 
z"/>
<path fill="#1F3A5F" opacity="1.000000" stroke="none" 
	d="
M355.042969,480.084717 
	C355.063354,466.573669 365.839661,455.719757 376.348633,452.923584 
	C389.712433,449.367798 402.642273,454.478699 409.546082,465.421692 
	C420.963348,483.518768 411.476929,505.216125 391.515472,510.320068 
	C372.415527,515.203735 354.307831,500.209869 355.042969,480.084717 
M360.746857,494.467896 
	C363.632507,497.756012 366.388855,501.170013 369.436523,504.300385 
	C373.250610,508.218018 390.308746,510.415833 394.448822,507.011688 
	C398.518890,503.665131 403.229980,500.806244 406.404694,496.750763 
	C409.181305,493.203949 411.458191,488.382996 411.781891,483.965576 
	C412.725555,471.088654 405.548859,462.775299 393.581665,455.911255 
	C380.957336,448.670288 355.843689,462.470581 358.318512,479.791443 
	C358.985077,484.456818 359.706390,489.114349 360.746857,494.467896 
z"/>
<path fill="#0F2D55" opacity="1.000000" stroke="none" 
	d="
M563.610352,499.791992 
	C554.782593,511.463257 538.463135,514.634277 525.589966,506.907410 
	C513.375610,499.575928 507.989990,485.357391 512.640930,471.594238 
	C516.188171,461.097168 527.986877,451.056396 542.333374,451.667114 
	C561.041504,452.463501 575.481140,473.387970 569.016846,490.786102 
	C567.855225,493.912537 565.599976,496.632568 563.610352,499.791992 
M566.865051,473.935303 
	C563.967041,469.463898 561.646423,464.445160 558.042297,460.643097 
	C551.870667,454.132507 544.029236,452.957947 535.163391,454.799774 
	C525.948792,456.714050 515.156494,466.455811 514.014404,475.298859 
	C512.952698,483.519531 513.085327,491.730499 519.202576,498.016693 
	C523.002563,501.921570 527.582581,506.333710 532.549927,507.580444 
	C543.965088,510.445679 554.207336,508.533936 562.329773,497.831512 
	C568.028564,490.322540 568.736938,483.098389 566.865051,473.935303 
z"/>
<path fill="#E56438" opacity="1.000000" stroke="none" 
	d="
M151.021576,609.656677 
	C155.651184,609.540527 159.792358,609.550537 163.914749,609.277161 
	C168.337036,608.983948 168.016052,612.149292 168.285172,614.910706 
	C168.589325,618.031189 167.284561,619.397400 163.986267,619.341797 
	C155.224365,619.193970 146.458313,619.291565 137.411728,619.291565 
	C137.411728,615.866150 137.411728,613.127075 137.411728,609.658142 
	C141.980499,609.658142 146.252686,609.658142 151.021576,609.656677 
z"/>
<path fill="#0B2954" opacity="1.000000" stroke="none" 
	d="
M476.953613,442.997559 
	C478.411621,442.333313 479.870300,441.088898 481.327515,441.090607 
	C508.996521,441.123047 536.665405,441.307281 564.334351,441.432007 
	C565.313660,441.436432 566.294250,441.154297 567.496216,441.307312 
	C566.486511,442.080078 565.254761,442.551239 563.652954,443.014771 
	C561.916992,443.225952 560.551025,443.444733 558.711182,443.714966 
	C553.764709,443.649414 549.291809,443.431854 544.819824,443.449066 
	C541.566895,443.461548 538.315247,443.784180 535.062988,443.968506 
	C533.971558,444.019806 532.880188,444.071106 531.219666,443.801331 
	C529.821472,443.540070 528.992371,443.599884 527.689575,443.712891 
	C522.443054,443.723724 517.670166,443.681396 512.780396,443.488159 
	C512.463440,443.164368 512.232361,443.060242 511.507690,443.024414 
	C506.704956,443.024353 502.364777,443.024780 497.680664,443.016693 
	C496.283905,443.226562 495.231079,443.444916 493.705505,443.714844 
	C489.119873,443.722321 485.007019,443.678192 480.778076,443.483948 
	C480.463135,443.162292 480.233734,443.057831 479.596802,443.020935 
	C478.464447,443.013428 477.709015,443.005493 476.953613,442.997559 
z"/>
<path fill="#1F3A5F" opacity="1.000000" stroke="none" 
	d="
M535.446045,444.076721 
	C538.315247,443.784180 541.566895,443.461548 544.819824,443.449066 
	C549.291809,443.431854 553.764709,443.649414 559.069336,443.785034 
	C561.275391,443.543213 562.649231,443.282776 564.023071,443.022369 
	C565.254761,442.551239 566.486511,442.080078 567.880127,441.301056 
	C568.361389,440.111176 568.946472,439.232483 568.957581,438.346619 
	C569.038513,431.880219 569.004150,425.412384 568.977600,418.143494 
	C567.949768,416.560486 566.950439,415.779053 565.951172,414.997589 
	C553.292725,414.993439 540.634216,414.989258 527.081665,414.980591 
	C524.109863,414.607727 522.032043,414.239349 519.954285,413.870972 
	C536.532593,413.870972 553.110901,413.870972 570.061646,413.870972 
	C570.061646,423.735260 570.061646,433.737885 570.061646,444.184906 
	C558.660217,444.184906 547.244629,444.184906 535.446045,444.076721 
z"/>
<path fill="#1F3A5F" opacity="1.000000" stroke="none" 
	d="
M480.894165,443.634094 
	C485.007019,443.678192 489.119873,443.722321 494.041260,443.784698 
	C495.908081,443.543701 496.966339,443.284424 498.024628,443.025146 
	C502.364777,443.024780 506.704956,443.024353 511.607971,443.199615 
	C512.364502,443.596985 512.606628,443.684937 512.897278,443.639069 
	C517.670166,443.681396 522.443054,443.723724 527.975647,443.787201 
	C529.128296,443.862091 529.521240,443.915863 529.914185,443.969666 
	C506.001434,444.055328 482.088745,444.156921 458.175934,444.219727 
	C447.045807,444.248962 435.915497,444.202881 424.667358,443.811768 
	C426.712280,442.632874 428.875031,441.833130 431.037811,441.033386 
	C432.731171,441.031708 434.424561,441.030029 436.622192,441.402832 
	C439.884796,442.467743 442.642365,443.737244 445.401550,443.740784 
	C453.949890,443.751770 462.498871,443.281219 471.047607,442.997559 
	C472.736450,442.999298 474.425323,443.001007 476.533875,443.000153 
	C477.709015,443.005493 478.464447,443.013428 479.695557,443.196259 
	C480.363190,443.593658 480.604187,443.681305 480.894165,443.634094 
z"/>
<path fill="#FBD5C1" opacity="1.000000" stroke="none" 
	d="
M218.944656,575.592102 
	C214.095840,576.438843 209.040543,576.330688 204.301956,577.502930 
	C189.204849,581.237549 180.081512,593.376709 180.104050,608.959473 
	C180.108368,611.938599 180.231613,614.917664 180.255524,618.346619 
	C179.522812,618.257751 178.296722,617.781433 178.225769,617.170959 
	C176.851318,605.342957 179.265182,594.588013 186.606674,584.865967 
	C190.968063,579.090332 196.885513,577.277466 203.371262,575.919312 
	C206.840088,575.192932 210.176483,573.694397 213.662491,573.251526 
	C215.292908,573.044495 217.136292,574.513855 218.944656,575.592102 
z"/>
<path fill="#FBD5C1" opacity="1.000000" stroke="none" 
	d="
M229.850266,624.863342 
	C222.513931,633.636353 210.719437,635.274170 200.952301,628.942017 
	C192.163422,623.244141 186.810806,609.790649 192.565186,600.048218 
	C192.881912,601.317871 193.252365,602.905640 192.861404,604.276184 
	C189.890091,614.691833 195.817963,621.400513 202.611618,627.610229 
	C205.844589,630.565247 220.532867,631.832214 225.197266,626.983826 
	C226.313034,625.824036 228.166061,625.373535 229.850266,624.863342 
z"/>
<path fill="#1F3A5F" opacity="1.000000" stroke="none" 
	d="
M389.562042,383.998962 
	C392.320251,383.959534 394.641693,383.923920 397.394104,383.913757 
	C384.992401,386.394806 372.159790,388.850433 358.264954,391.509338 
	C359.378601,394.846588 360.316467,397.657104 361.155060,400.745178 
	C360.299500,401.011475 359.543213,401.000275 358.401489,400.742554 
	C358.016022,400.496033 357.999786,400.008545 357.999786,400.008545 
	C357.999847,399.841095 357.999908,399.673615 358.005890,398.850983 
	C357.676147,396.463104 357.340485,394.730408 357.004822,392.997711 
	C357.494629,391.912598 357.787415,390.044159 358.504791,389.863708 
	C365.558105,388.089630 372.662506,386.498810 379.795105,385.068878 
	C382.853516,384.455780 386.012177,384.342957 389.562042,383.998962 
z"/>
<path fill="#0B2954" opacity="1.000000" stroke="none" 
	d="
M430.565399,441.022919 
	C428.875031,441.833130 426.712280,442.632874 424.280212,443.703186 
	C422.589264,444.024933 421.167572,444.076111 418.872070,443.999817 
	C414.030304,443.903290 410.062347,443.934204 406.094421,443.965118 
	C404.996124,444.020538 403.897858,444.075958 402.092743,443.765961 
	C395.931793,443.274780 390.477631,443.149017 384.602905,443.015137 
	C382.780518,443.012573 381.378723,443.018158 379.638428,443.021912 
	C378.515442,442.692596 377.731018,442.365021 376.946594,442.037445 
	C378.671387,441.693665 380.394867,441.059418 382.121216,441.051361 
	C398.111511,440.976868 414.102325,441.010315 430.565399,441.022919 
z"/>
<path fill="#1F3A5F" opacity="1.000000" stroke="none" 
	d="
M482.955719,414.992035 
	C476.633759,414.987854 470.311829,414.983673 463.496094,414.698608 
	C462.987000,414.232269 462.971680,414.046844 462.956390,413.861450 
	C479.729218,413.772247 496.502075,413.683105 513.635681,414.006775 
	C513.977234,414.604248 513.958069,414.788879 513.938904,414.973511 
	C507.284668,414.977783 500.630432,414.982056 493.050751,414.981018 
	C489.068787,414.981140 486.012238,414.986603 482.955719,414.992035 
z"/>
<path fill="#FBD5C1" opacity="1.000000" stroke="none" 
	d="
M193.460083,599.001709 
	C194.658234,592.946716 199.333054,589.673218 204.625458,587.698059 
	C213.778275,584.282227 222.545975,585.208008 230.292023,592.324829 
	C228.763641,592.195068 226.556519,592.296753 225.484985,591.243286 
	C219.567459,585.425537 201.770248,587.837463 197.414001,595.805847 
	C196.695404,597.120300 195.032455,597.918457 193.460083,599.001709 
z"/>
<path fill="#1F3A5F" opacity="1.000000" stroke="none" 
	d="
M380.930969,414.973694 
	C379.746765,415.148193 378.562561,415.322693 377.193970,414.920990 
	C377.006622,413.898254 377.003632,413.451752 377.000671,413.005249 
	C387.090851,413.204926 397.181000,413.404572 407.632019,414.012634 
	C407.972046,414.603424 407.951233,414.785858 407.930420,414.968262 
	C399.619293,414.971619 391.308136,414.974945 382.423767,414.812836 
	C381.543976,414.756134 381.237488,414.864899 380.930969,414.973694 
z"/>
<path fill="#FBD5C1" opacity="1.000000" stroke="none" 
	d="
M215.276093,643.443481 
	C220.843307,640.840027 226.825195,638.747681 232.492477,636.005249 
	C234.424606,635.070312 235.565781,632.500732 237.105255,630.308105 
	C240.967239,632.563721 237.994553,635.817017 236.445312,636.546143 
	C230.186249,639.491577 223.531479,641.599060 217.003952,643.963867 
	C216.608856,644.106934 216.050156,643.798462 215.276093,643.443481 
z"/>
<path fill="#1F3A5F" opacity="1.000000" stroke="none" 
	d="
M376.721191,442.032410 
	C377.731018,442.365021 378.515442,442.692596 379.884521,443.266632 
	C381.987274,443.349823 383.505371,443.186554 385.023499,443.023285 
	C390.477631,443.149017 395.931793,443.274780 401.686768,443.685547 
	C391.908417,443.676849 381.829224,443.383179 371.505493,442.753143 
	C371.465698,442.196808 371.713531,442.048981 372.004364,441.973297 
	C372.452332,441.973816 372.900269,441.974335 373.903870,442.057739 
	C374.988037,442.100922 375.516510,442.061157 376.045013,442.021423 
	C376.045013,442.021423 376.495819,442.027374 376.721191,442.032410 
z"/>
<path fill="#FBD5C1" opacity="1.000000" stroke="none" 
	d="
M184.103119,628.250244 
	C189.687759,632.853271 194.587021,638.706116 202.326721,641.209839 
	C196.021439,642.376099 185.099442,634.785828 184.103119,628.250244 
z"/>
<path fill="#1F3A5F" opacity="1.000000" stroke="none" 
	d="
M314.976807,346.043182 
	C314.980835,346.775085 314.984894,347.506958 314.991089,348.988708 
	C315.392792,352.138031 315.792328,354.537506 316.191864,356.937012 
	C314.032227,350.142303 311.872620,343.347626 310.073242,336.277100 
	C310.612549,336.020111 310.791626,336.038971 310.970673,336.057831 
	C311.655670,338.134796 312.340698,340.211761 313.054504,342.952271 
	C313.381470,344.076538 313.679596,344.537231 313.977722,344.997925 
	C313.977722,344.997925 313.994720,345.003601 314.101959,345.231873 
	C314.407227,345.730591 314.663086,345.924957 314.976807,346.043182 
z"/>
<path fill="#1F3A5F" opacity="1.000000" stroke="none" 
	d="
M330.971436,401.042847 
	C331.124298,402.531158 331.277161,404.019470 331.719421,406.133118 
	C333.005493,409.180115 334.002136,411.601746 334.998779,414.023376 
	C336.286499,415.777496 337.574188,417.531616 338.585815,419.658539 
	C338.093506,420.059235 337.877228,420.087158 337.660919,420.115112 
	C334.695068,413.931580 331.729187,407.748077 329.184570,401.287506 
	C330.061005,401.021271 330.516205,401.032074 330.971436,401.042847 
z"/>
<path fill="#1F3A5F" opacity="1.000000" stroke="none" 
	d="
M434.939178,414.972443 
	C428.624908,414.973663 422.310669,414.974884 415.501404,414.699158 
	C414.990967,414.239838 414.975525,414.057526 414.960052,413.875183 
	C421.398621,413.780243 427.837219,413.685272 434.636444,414.003845 
	C434.977783,414.602356 434.958496,414.787384 434.939178,414.972443 
z"/>
<path fill="#1F3A5F" opacity="1.000000" stroke="none" 
	d="
M458.938721,414.972656 
	C452.622711,414.974976 446.306732,414.977325 439.496582,414.698975 
	C438.986969,414.232971 438.971497,414.047668 438.956055,413.862335 
	C445.395691,413.772614 451.835327,413.682892 458.635925,414.005615 
	C458.977448,414.602905 458.958069,414.787781 458.938721,414.972656 
z"/>
<path fill="#1F3A5F" opacity="1.000000" stroke="none" 
	d="
M304.976654,315.045837 
	C305.029083,315.813812 305.081543,316.581818 305.242188,317.929016 
	C305.488617,318.764130 305.696320,318.936432 305.973480,319.025116 
	C306.232330,319.816681 306.491211,320.608215 306.874878,322.027161 
	C307.119110,324.060364 307.238525,325.466248 307.357971,326.872101 
	C305.467590,320.820282 303.577271,314.768494 301.852844,308.334839 
	C302.344757,307.976959 302.671051,307.994354 302.997742,308.005188 
	C302.997742,308.005188 303.000000,308.000000 303.026733,308.297058 
	C303.357117,309.074982 303.660706,309.555878 303.964294,310.036774 
	C303.979370,310.476898 303.994476,310.917023 304.028687,312.021667 
	C304.357422,313.472748 304.667023,314.259277 304.976654,315.045837 
z"/>
<path fill="#0F2D55" opacity="1.000000" stroke="none" 
	d="
M289.097382,260.996704 
	C292.976807,264.652435 295.064270,268.764587 292.084381,274.195587 
	C291.738983,274.311646 291.710724,274.320892 291.781982,274.053894 
	C291.573029,272.967346 291.292877,272.147736 291.012695,271.328156 
	C290.887817,270.972656 290.762970,270.617157 290.336670,269.781433 
	C290.035278,269.301178 290.089050,269.315735 290.089050,269.315735 
	C290.013184,269.103241 289.937317,268.890717 290.051178,268.257080 
	C290.096954,267.594391 289.953003,267.352814 289.809052,267.111237 
	C289.809052,267.111237 289.921967,267.133301 289.940186,266.896973 
	C289.618713,266.096527 289.278992,265.532349 288.939270,264.968201 
	C288.752563,264.518097 288.565857,264.067993 288.593292,263.053833 
	C288.904114,261.992065 289.000763,261.494385 289.097382,260.996704 
z"/>
<path fill="#FBD5C1" opacity="1.000000" stroke="none" 
	d="
M235.958221,582.683105 
	C231.451813,580.904358 226.934708,578.773193 222.204407,576.370728 
	C228.005066,575.126709 232.204727,578.217224 235.958221,582.683105 
z"/>
<path fill="#0F2D55" opacity="1.000000" stroke="none" 
	d="
M307.319031,327.238098 
	C307.238525,325.466248 307.119110,324.060364 306.999847,322.318115 
	C310.465942,325.776611 312.002777,330.152039 310.987732,335.674011 
	C310.791626,336.038971 310.612549,336.020111 310.164154,335.981354 
	C309.658386,335.698975 309.558868,335.392090 309.746582,334.436890 
	C309.167969,332.208710 308.439056,330.584442 307.710144,328.960175 
	C307.566803,328.508148 307.423462,328.056091 307.319031,327.238098 
z"/>
<path fill="#0B2954" opacity="1.000000" stroke="none" 
	d="
M514.217041,415.260925 
	C513.958069,414.788879 513.977234,414.604248 514.020264,414.142181 
	C515.737915,413.802490 517.431763,413.740204 519.539917,413.774475 
	C522.032043,414.239349 524.109863,414.607727 526.615845,414.984009 
	C525.268005,415.643005 523.498840,416.797760 521.714417,416.821716 
	C519.314148,416.853973 516.902161,416.013947 514.217041,415.260925 
z"/>
<path fill="#1F3A5F" opacity="1.000000" stroke="none" 
	d="
M351.015625,432.965546 
	C351.565338,433.139618 352.115021,433.313690 352.923431,433.966248 
	C353.805939,434.644684 354.429718,434.844635 355.053528,435.044556 
	C355.486145,435.034851 355.918762,435.025177 356.918640,435.169434 
	C357.996277,435.881958 358.506683,436.440521 359.017090,436.999084 
	C359.335236,437.463531 359.653381,437.927948 359.990112,438.686584 
	C356.700775,437.219025 353.392944,435.457184 350.245605,433.349670 
	C350.609283,432.991150 350.812469,432.978333 351.015625,432.965546 
z"/>
<path fill="#1F3A5F" opacity="1.000000" stroke="none" 
	d="
M261.552673,246.330597 
	C261.777527,245.968628 262.128448,245.973022 262.742859,245.986115 
	C263.006287,245.994797 263.000000,245.999878 263.001709,246.337921 
	C263.324738,247.467789 263.646088,248.259613 263.967407,249.051437 
	C263.988129,249.484848 264.008850,249.918259 264.070374,251.039490 
	C264.795380,253.004639 265.479614,254.281952 266.163818,255.559265 
	C261.350311,254.284576 262.772430,249.854187 261.552673,246.330597 
z"/>
<path fill="#0F2D55" opacity="1.000000" stroke="none" 
	d="
M294.127258,279.009155 
	C295.545166,282.863586 296.963104,286.718018 297.938110,290.642700 
	C297.009064,290.145844 296.522919,289.578766 296.036774,289.011688 
	C295.596619,287.681488 295.156464,286.351257 294.835297,284.381287 
	C294.547150,283.149078 294.140015,282.556641 293.732880,281.964203 
	C293.582520,281.504547 293.432159,281.044891 293.535126,280.128662 
	C293.939148,279.470367 294.052063,279.249420 294.127258,279.009155 
z"/>
<path fill="#1F3A5F" opacity="1.000000" stroke="none" 
	d="
M373.984131,413.988312 
	C372.540405,413.414978 371.096649,412.841644 369.313721,411.832947 
	C368.646790,410.930115 368.319122,410.462616 367.991455,409.995117 
	C367.692230,409.782013 367.393005,409.568909 366.987823,408.977051 
	C366.881866,408.598267 366.967865,408.310394 366.967865,408.310394 
	C369.839905,409.742401 372.711914,411.174408 375.592865,412.830505 
	C375.062561,413.365845 374.523346,413.677063 373.984131,413.988312 
z"/>
<path fill="#0F2D55" opacity="1.000000" stroke="none" 
	d="
M316.137146,357.344757 
	C315.792328,354.537506 315.392792,352.138031 314.995422,349.354614 
	C316.300354,352.402710 317.603119,355.834747 318.684631,359.643768 
	C317.950378,359.994507 317.437408,359.968231 316.924408,359.941956 
	C316.643738,359.212158 316.363068,358.482330 316.137146,357.344757 
z"/>
<path fill="#1F3A5F" opacity="1.000000" stroke="none" 
	d="
M328.986145,396.035522 
	C329.017944,396.476837 329.049774,396.918152 329.036804,398.031769 
	C328.919647,398.928375 328.847260,399.152649 328.774872,399.376892 
	C327.468658,395.775574 326.162445,392.174255 325.180695,388.447052 
	C326.004272,388.880432 326.503357,389.439697 327.002441,389.998993 
	C327.002441,389.998993 327.000000,390.000000 327.013458,390.369324 
	C327.679993,392.504303 328.333069,394.269897 328.986145,396.035522 
z"/>
<path fill="#FBD5C1" opacity="1.000000" stroke="none" 
	d="
M234.189117,592.898499 
	C235.189590,590.508850 236.551361,588.154175 237.918808,585.436401 
	C238.377350,586.377563 239.593811,588.198059 239.130676,588.883301 
	C238.025558,590.518372 236.127991,591.617798 234.189117,592.898499 
z"/>
<path fill="#0F2D55" opacity="1.000000" stroke="none" 
	d="
M327.003235,389.567780 
	C326.503357,389.439697 326.004272,388.880432 325.265686,388.165466 
	C324.899231,387.383698 324.772308,386.757629 324.700256,385.509186 
	C324.476776,384.590546 324.198395,384.294312 323.920013,383.998077 
	C323.828522,383.651031 323.737000,383.303986 323.861206,382.406799 
	C324.370728,381.554169 324.664520,381.251648 324.958313,380.949097 
	C325.640228,383.678253 326.322144,386.407410 327.003235,389.567780 
z"/>
<path fill="#FBD5C1" opacity="1.000000" stroke="none" 
	d="
M180.141937,619.246521 
	C181.526413,621.611328 182.830429,624.373535 184.153015,627.504028 
	C182.801544,625.129517 181.431503,622.386719 180.141937,619.246521 
z"/>
<path fill="#0F2D55" opacity="1.000000" stroke="none" 
	d="
M337.698608,420.448975 
	C337.877228,420.087158 338.093506,420.059235 338.632446,419.980042 
	C341.938660,420.708405 343.794983,422.183990 342.186401,425.842773 
	C341.547272,426.083954 341.272827,425.945709 340.952515,425.172241 
	C340.588898,424.465698 340.351654,424.234589 340.114380,424.003479 
	C339.321686,422.929932 338.528992,421.856384 337.698608,420.448975 
z"/>
<path fill="#1F3A5F" opacity="1.000000" stroke="none" 
	d="
M289.065125,260.672852 
	C289.000763,261.494385 288.904114,261.992065 288.630890,262.672729 
	C287.348419,260.502258 286.242523,258.148804 285.223816,255.412521 
	C285.531555,254.991623 285.752136,254.953537 285.972687,254.915451 
	C286.139496,254.934174 286.306305,254.952881 286.862091,255.294189 
	C287.826233,256.760773 288.401337,257.904785 288.976471,259.048767 
	C288.995270,259.482178 289.014038,259.915619 289.065125,260.672852 
z"/>
<path fill="#0F2D55" opacity="1.000000" stroke="none" 
	d="
M266.564575,255.522247 
	C265.479614,254.281952 264.795380,253.004639 264.090698,251.364319 
	C266.140228,251.671127 268.210236,252.340973 270.652557,253.375900 
	C271.003845,254.215027 270.982819,254.689056 270.961792,255.163086 
	C269.629639,255.270477 268.297516,255.377869 266.564575,255.522247 
z"/>
<path fill="#0F2D55" opacity="1.000000" stroke="none" 
	d="
M298.627075,297.600586 
	C303.342285,297.299438 301.699341,301.167816 302.015747,303.622223 
	C300.930817,302.769287 300.330444,301.866455 299.730072,300.963593 
	C299.342834,299.974640 298.955597,298.985657 298.627075,297.600586 
z"/>
<path fill="#0B2954" opacity="1.000000" stroke="none" 
	d="
M371.933533,441.617920 
	C371.713531,442.048981 371.465698,442.196808 371.160156,442.610596 
	C370.570984,442.804474 370.082550,442.804535 369.277405,442.323608 
	C368.350494,441.750916 367.740356,441.659180 367.130188,441.567444 
	C366.651093,441.600037 366.171967,441.632629 365.381470,441.263672 
	C365.031830,440.576141 365.001099,440.289368 364.977844,440.001831 
	C367.272797,440.422058 369.567749,440.842285 371.933533,441.617920 
z"/>
<path fill="#0F2D55" opacity="1.000000" stroke="none" 
	d="
M350.953308,432.619629 
	C350.812469,432.978333 350.609283,432.991150 350.103455,433.044373 
	C348.599091,432.299988 347.397400,431.515198 346.081665,430.090942 
	C345.959778,428.972809 345.951904,428.494080 345.944061,428.015381 
	C347.593048,429.434814 349.242004,430.854279 350.953308,432.619629 
z"/>
<path fill="#1F3A5F" opacity="1.000000" stroke="none" 
	d="
M277.036621,253.018585 
	C277.769012,253.019882 278.501404,253.021194 279.803223,253.281296 
	C281.269409,254.080704 282.166168,254.621323 283.062958,255.161926 
	C281.237305,255.248123 279.411682,255.334305 277.291748,254.932190 
	C277.010529,253.968796 277.023560,253.493698 277.036621,253.018585 
z"/>
<path fill="#0B2954" opacity="1.000000" stroke="none" 
	d="
M414.535583,413.779297 
	C414.975525,414.057526 414.990967,414.239838 415.037354,414.694641 
	C412.867920,415.155853 410.667572,415.344635 408.198822,415.250824 
	C407.951233,414.785858 407.972046,414.603424 408.016907,414.146667 
	C410.064331,413.809296 412.087708,413.746338 414.535583,413.779297 
z"/>
<path fill="#1F3A5F" opacity="1.000000" stroke="none" 
	d="
M320.970428,369.054016 
	C321.299622,370.462311 321.628784,371.870636 321.803284,373.643127 
	C321.648590,374.007294 321.249390,373.952576 321.249390,373.952576 
	C320.529114,371.833740 319.808838,369.714905 319.332092,367.286194 
	C319.575592,366.976318 319.998657,366.953796 319.998657,366.953796 
	C320.033997,367.142120 320.069336,367.330414 320.213684,368.009033 
	C320.466980,368.767792 320.682892,368.952698 320.970428,369.054016 
z"/>
<path fill="#FBD5C1" opacity="1.000000" stroke="none" 
	d="
M206.069794,642.410339 
	C208.154800,642.175842 210.318588,642.305664 212.739380,642.734680 
	C210.713791,642.947449 208.431183,642.861084 206.069794,642.410339 
z"/>
<path fill="#1F3A5F" opacity="1.000000" stroke="none" 
	d="
M406.468018,444.071747 
	C410.062347,443.934204 414.030304,443.903290 418.451752,443.918579 
	C414.884064,444.035950 410.862823,444.107147 406.468018,444.071747 
z"/>
<path fill="#0F2D55" opacity="1.000000" stroke="none" 
	d="
M283.322266,255.259995 
	C282.166168,254.621323 281.269409,254.080704 280.169373,253.285828 
	C281.934174,253.431961 283.902222,253.832336 285.921478,254.574081 
	C285.752136,254.953537 285.531555,254.991623 284.989075,255.123856 
	C284.305298,255.264679 283.943451,255.311371 283.322266,255.259995 
z"/>
<path fill="#1F3A5F" opacity="1.000000" stroke="none" 
	d="
M324.966064,380.631714 
	C324.664520,381.251648 324.370728,381.554169 323.935028,382.144501 
	C323.140503,380.520599 322.487885,378.608917 322.115509,376.470428 
	C323.256531,377.176758 324.117310,378.109863 324.978088,379.042938 
	C324.976654,379.466736 324.975220,379.890533 324.966064,380.631714 
z"/>
<path fill="#1F3A5F" opacity="1.000000" stroke="none" 
	d="
M365.867462,407.703125 
	C365.120026,407.513947 364.124359,407.119690 363.059631,406.093567 
	C362.982880,405.084778 362.975189,404.707764 362.967499,404.330780 
	C363.851410,405.386536 364.735321,406.442322 365.867462,407.703125 
z"/>
<path fill="#FBD5C1" opacity="1.000000" stroke="none" 
	d="
M237.074951,629.501099 
	C235.680389,628.520508 234.287277,627.178833 232.822083,625.515747 
	C234.192123,626.509583 235.634247,627.824768 237.074951,629.501099 
z"/>
<path fill="#0F2D55" opacity="1.000000" stroke="none" 
	d="
M324.950623,378.680756 
	C324.117310,378.109863 323.256531,377.176758 322.127441,376.125061 
	C321.619659,375.576935 321.380127,375.147430 321.195007,374.335236 
	C321.249390,373.952576 321.648590,374.007294 321.850616,374.005066 
	C323.009491,375.441437 323.966339,376.880005 324.950623,378.680756 
z"/>
<path fill="#1F3A5F" opacity="1.000000" stroke="none" 
	d="
M299.611511,301.277466 
	C300.330444,301.866455 300.930817,302.769287 301.761688,303.842255 
	C301.998230,304.451019 302.004303,304.889648 301.790039,305.659271 
	C301.569672,305.990234 301.125092,305.969666 301.125092,305.969666 
	C300.581055,304.510223 300.037018,303.050751 299.611511,301.277466 
z"/>
<path fill="#1F3A5F" opacity="1.000000" stroke="none" 
	d="
M316.934692,360.262085 
	C317.437408,359.968231 317.950378,359.994507 318.719208,360.034882 
	C318.974335,360.469086 318.973663,360.889160 318.808258,361.730835 
	C318.766052,362.435760 318.888580,362.719147 319.011139,363.002533 
	C318.994598,363.497223 318.978058,363.991913 318.878662,364.849243 
	C318.178833,363.668701 317.561920,362.125458 316.934692,360.262085 
z"/>
<path fill="#1F3A5F" opacity="1.000000" stroke="none" 
	d="
M307.696899,329.295471 
	C308.439056,330.584442 309.167969,332.208710 309.841522,334.207733 
	C309.085327,332.931885 308.384460,331.281311 307.696899,329.295471 
z"/>
<path fill="#1F3A5F" opacity="1.000000" stroke="none" 
	d="
M364.609741,439.955261 
	C365.001099,440.289368 365.031830,440.576141 365.067719,441.078369 
	C363.701080,440.766052 362.336761,440.237427 360.816193,439.423157 
	C361.853851,439.394562 363.047729,439.651611 364.609741,439.955261 
z"/>
<path fill="#0F2D55" opacity="1.000000" stroke="none" 
	d="
M276.627502,253.010086 
	C277.023560,253.493698 277.010529,253.968796 276.973694,254.799835 
	C275.901917,255.215332 274.853851,255.274933 273.402283,254.886200 
	C272.983887,253.967194 272.968964,253.496490 272.954071,253.025803 
	C274.042175,253.017731 275.130249,253.009659 276.627502,253.010086 
z"/>
<path fill="#1F3A5F" opacity="1.000000" stroke="none" 
	d="
M295.956512,289.266846 
	C296.522919,289.578766 297.009064,290.145844 297.731628,290.871521 
	C297.993774,291.463440 298.019562,291.896729 297.857971,292.669037 
	C297.670624,293.008026 297.258820,292.952209 297.258820,292.952209 
	C296.797974,291.808807 296.337128,290.665375 295.956512,289.266846 
z"/>
<path fill="#0B2954" opacity="1.000000" stroke="none" 
	d="
M459.161133,415.235870 
	C458.958069,414.787781 458.977448,414.602905 459.020508,414.140198 
	C460.092255,413.796814 461.140381,413.731262 462.572449,413.763611 
	C462.971680,414.046844 462.987000,414.232269 463.031555,414.695007 
	C461.835022,415.147888 460.609253,415.323486 459.161133,415.235870 
z"/>
<path fill="#0B2954" opacity="1.000000" stroke="none" 
	d="
M438.572205,413.764252 
	C438.971497,414.047668 438.986969,414.232971 439.032104,414.695496 
	C437.836090,415.148315 436.610474,415.323975 435.161987,415.236023 
	C434.958496,414.787384 434.977783,414.602356 435.020782,414.139343 
	C436.092438,413.796234 437.140411,413.731201 438.572205,413.764252 
z"/>
<path fill="#1F3A5F" opacity="1.000000" stroke="none" 
	d="
M345.646484,427.876892 
	C345.951904,428.494080 345.959778,428.972809 345.948212,429.810181 
	C344.976562,429.332397 344.024353,428.495972 342.968140,427.354370 
	C343.692413,427.278961 344.520660,427.508667 345.646484,427.876892 
z"/>
<path fill="#0B2954" opacity="1.000000" stroke="none" 
	d="
M362.827942,404.074951 
	C362.975189,404.707764 362.982880,405.084778 362.997742,405.745544 
	C362.254150,405.080994 361.503418,404.132721 361.034546,403.017761 
	C361.773743,403.173767 362.231049,403.496460 362.827942,404.074951 
z"/>
<path fill="#1F3A5F" opacity="1.000000" stroke="none" 
	d="
M294.070831,278.702942 
	C294.052063,279.249420 293.939148,279.470367 293.631866,279.772858 
	C293.016571,278.813477 292.557892,277.753265 292.164642,276.345184 
	C292.824829,276.797119 293.419617,277.596924 294.070831,278.702942 
z"/>
<path fill="#1F3A5F" opacity="1.000000" stroke="none" 
	d="
M272.636658,253.022522 
	C272.968964,253.496490 272.983887,253.967194 273.017822,254.790817 
	C272.467255,255.238235 271.897644,255.332718 271.144897,255.295151 
	C270.982819,254.689056 271.003845,254.215027 271.037476,253.385925 
	C271.473114,253.026993 271.896179,253.023102 272.636658,253.022522 
z"/>
<path fill="#0F2D55" opacity="1.000000" stroke="none" 
	d="
M297.211548,293.303802 
	C297.258820,292.952209 297.670624,293.008026 297.878906,292.994202 
	C298.542847,293.543488 298.998505,294.106659 298.999695,294.825165 
	C298.242310,294.940460 297.938416,294.930573 297.633514,294.950836 
	C297.477112,294.519012 297.320679,294.087219 297.211548,293.303802 
z"/>
<path fill="#0B2954" opacity="1.000000" stroke="none" 
	d="
M374.192657,414.252533 
	C374.523346,413.677063 375.062561,413.365845 375.914368,412.964417 
	C376.226929,412.874237 376.648376,412.735291 376.824524,412.870270 
	C377.003632,413.451752 377.006622,413.898254 377.008911,414.680054 
	C376.139191,414.849121 375.270203,414.682922 374.192657,414.252533 
z"/>
<path fill="#0F2D55" opacity="1.000000" stroke="none" 
	d="
M328.701294,399.645996 
	C328.847260,399.152649 328.919647,398.928375 329.077850,398.361115 
	C329.769501,398.793732 330.375366,399.569275 330.976318,400.693848 
	C330.516205,401.032074 330.061005,401.021271 329.264404,400.992981 
	C328.824615,400.622040 328.726166,400.268555 328.701294,399.645996 
z"/>
<path fill="#1F3A5F" opacity="1.000000" stroke="none" 
	d="
M290.915710,271.592255 
	C291.292877,272.147736 291.573029,272.967346 291.769470,274.046417 
	C291.396759,273.489380 291.107758,272.672882 290.915710,271.592255 
z"/>
<path fill="#1F3A5F" opacity="1.000000" stroke="none" 
	d="
M288.906921,265.214722 
	C289.278992,265.532349 289.618713,266.096527 289.889099,266.923401 
	C289.504700,266.611176 289.189667,266.036194 288.906921,265.214722 
z"/>
<path fill="#1F3A5F" opacity="1.000000" stroke="none" 
	d="
M293.639038,282.231598 
	C294.140015,282.556641 294.547150,283.149078 294.908142,284.034576 
	C294.423065,283.718079 293.984131,283.108551 293.639038,282.231598 
z"/>
<path fill="#1F3A5F" opacity="1.000000" stroke="none" 
	d="
M297.607544,295.219055 
	C297.938416,294.930573 298.242310,294.940460 298.773224,294.993286 
	C298.969910,295.521820 298.938629,296.037506 298.794067,296.925354 
	C298.314392,296.694092 297.947968,296.090668 297.607544,295.219055 
z"/>
<path fill="#1F3A5F" opacity="1.000000" stroke="none" 
	d="
M367.309570,441.765503 
	C367.740356,441.659180 368.350494,441.750916 369.006958,442.072266 
	C368.531830,442.189087 368.010376,442.076324 367.309570,441.765503 
z"/>
<path fill="#0F2D55" opacity="1.000000" stroke="none" 
	d="
M301.078644,306.322632 
	C301.125092,305.969666 301.569672,305.990234 301.792358,305.988403 
	C302.331757,306.459839 302.648407,306.933105 302.981415,307.705780 
	C302.671051,307.994354 302.344757,307.976959 301.773956,307.964661 
	C301.363495,307.542816 301.197845,307.109222 301.078644,306.322632 
z"/>
<path fill="#0F2D55" opacity="1.000000" stroke="none" 
	d="
M530.184814,444.038544 
	C529.521240,443.915863 529.128296,443.862091 528.449341,443.734009 
	C528.992371,443.599884 529.821472,443.540070 530.818970,443.708557 
	C530.810059,443.993683 530.632751,444.050568 530.184814,444.038544 
z"/>
<path fill="#0F2D55" opacity="1.000000" stroke="none" 
	d="
M319.972778,366.649628 
	C319.998657,366.953796 319.575592,366.976318 319.365417,367.002869 
	C318.990692,366.607239 318.826141,366.185089 318.733826,365.420441 
	C319.186340,365.500458 319.566650,365.922974 319.972778,366.649628 
z"/>
<path fill="#1F3A5F" opacity="1.000000" stroke="none" 
	d="
M289.994995,269.455994 
	C290.089050,269.315735 290.035278,269.301178 290.067383,269.284515 
	C290.099487,269.267853 289.674469,269.368774 289.674469,269.368774 
	C289.674469,269.368774 289.900909,269.596252 289.994995,269.455994 
z"/>
<path fill="#1F3A5F" opacity="1.000000" stroke="none" 
	d="
M340.097687,424.282501 
	C340.351654,424.234589 340.588898,424.465698 340.875793,424.944977 
	C340.643951,424.982605 340.362457,424.772064 340.097687,424.282501 
z"/>
<path fill="#0B2954" opacity="1.000000" stroke="none" 
	d="
M366.784729,408.084412 
	C366.967865,408.310394 366.881866,408.598267 366.839966,408.741516 
	C366.506592,408.800323 366.294891,408.621521 366.094299,408.144470 
	C366.217651,407.913269 366.409607,407.885864 366.784729,408.084412 
z"/>
<path fill="#1F3A5F" opacity="1.000000" stroke="none" 
	d="
M323.879883,384.328339 
	C324.198395,384.294312 324.476776,384.590546 324.784241,385.197845 
	C324.488800,385.225464 324.164307,384.942017 323.879883,384.328339 
z"/>
<path fill="#FBD5C1" opacity="1.000000" stroke="none" 
	d="
M237.874252,584.815796 
	C237.631454,584.901672 237.332748,584.731567 236.996002,584.296509 
	C237.244751,584.207581 237.531555,584.383667 237.874252,584.815796 
z"/>
<path fill="#1F3A5F" opacity="1.000000" stroke="none" 
	d="
M289.733032,267.343018 
	C289.953003,267.352814 290.096954,267.594391 290.066650,267.919006 
	C289.892426,268.002045 289.657013,267.574768 289.733032,267.343018 
z"/>
<path fill="#0B2954" opacity="1.000000" stroke="none" 
	d="
M470.942993,442.602509 
	C462.498871,443.281219 453.949890,443.751770 445.401550,443.740784 
	C442.642365,443.737244 439.884796,442.467743 437.045410,441.405212 
	C446.757782,441.023682 456.551697,440.963318 466.344116,441.058777 
	C467.845764,441.073425 469.340454,441.806610 470.942993,442.602509 
z"/>
<path fill="#0B2954" opacity="1.000000" stroke="none" 
	d="
M483.055695,415.379395 
	C486.012238,414.986603 489.068787,414.981140 492.585022,414.984192 
	C490.006104,418.543213 486.594055,417.323273 483.055695,415.379395 
z"/>
<path fill="#0F2D55" opacity="1.000000" stroke="none" 
	d="
M335.001404,413.610992 
	C334.002136,411.601746 333.005493,409.180115 331.993164,406.383942 
	C332.986328,408.405792 333.995178,410.802216 335.001404,413.610992 
z"/>
<path fill="#0F2D55" opacity="1.000000" stroke="none" 
	d="
M329.238068,395.815033 
	C328.333069,394.269897 327.679993,392.504303 327.014404,390.368103 
	C327.831238,391.863220 328.660614,393.728882 329.238068,395.815033 
z"/>
<path fill="#0B2954" opacity="1.000000" stroke="none" 
	d="
M357.003174,393.375793 
	C357.340485,394.730408 357.676147,396.463104 358.008362,398.599792 
	C357.670441,397.253784 357.335999,395.503815 357.003174,393.375793 
z"/>
<path fill="#0B2954" opacity="1.000000" stroke="none" 
	d="
M566.000488,415.337738 
	C566.950439,415.779053 567.949768,416.560486 568.975708,417.692322 
	C568.018250,417.254425 567.033997,416.466156 566.000488,415.337738 
z"/>
<path fill="#0F2D55" opacity="1.000000" stroke="none" 
	d="
M288.986847,258.666809 
	C288.401337,257.904785 287.826233,256.760773 287.112885,255.316101 
	C287.648865,256.105225 288.323029,257.195038 288.986847,258.666809 
z"/>
<path fill="#0B2954" opacity="1.000000" stroke="none" 
	d="
M359.008179,436.670715 
	C358.506683,436.440521 357.996277,435.881958 357.243164,435.168243 
	C357.666748,435.456207 358.333038,435.899292 359.008179,436.670715 
z"/>
<path fill="#0F2D55" opacity="1.000000" stroke="none" 
	d="
M304.062225,309.784424 
	C303.660706,309.555878 303.357117,309.074982 303.024170,308.298157 
	C303.383240,308.512177 303.771698,309.022125 304.062225,309.784424 
z"/>
<path fill="#0F2D55" opacity="1.000000" stroke="none" 
	d="
M263.979553,248.707214 
	C263.646088,248.259613 263.324738,247.467789 263.004089,246.335983 
	C263.333740,246.784988 263.662750,247.573990 263.979553,248.707214 
z"/>
<path fill="#0F2D55" opacity="1.000000" stroke="none" 
	d="
M354.880127,434.793060 
	C354.429718,434.844635 353.805939,434.644684 353.098694,434.201660 
	C353.579102,434.152924 354.142914,434.347260 354.880127,434.793060 
z"/>
<path fill="#0B2954" opacity="1.000000" stroke="none" 
	d="
M375.894440,441.795166 
	C375.516510,442.061157 374.988037,442.100922 374.239807,442.052368 
	C374.594696,441.832336 375.169281,441.700592 375.894440,441.795166 
z"/>
<path fill="#0F2D55" opacity="1.000000" stroke="none" 
	d="
M304.985016,314.705750 
	C304.667023,314.259277 304.357422,313.472748 304.047607,312.351440 
	C304.362701,312.799652 304.678040,313.582642 304.985016,314.705750 
z"/>
<path fill="#0B2954" opacity="1.000000" stroke="none" 
	d="
M368.014984,410.296814 
	C368.319122,410.462616 368.646790,410.930115 369.007233,411.695862 
	C368.706146,411.528931 368.372345,411.063751 368.014984,410.296814 
z"/>
<path fill="#0F2D55" opacity="1.000000" stroke="none" 
	d="
M313.969238,344.708679 
	C313.679596,344.537231 313.381470,344.076538 313.081238,343.326355 
	C313.372986,343.497711 313.666901,343.958588 313.969238,344.708679 
z"/>
<path fill="#0B2954" opacity="1.000000" stroke="none" 
	d="
M357.832520,400.097046 
	C357.999786,400.008545 358.016022,400.496033 358.023315,400.739624 
	C357.908844,400.717346 357.787048,400.451416 357.832520,400.097046 
z"/>
<path fill="#0B2954" opacity="1.000000" stroke="none" 
	d="
M381.215302,414.982269 
	C381.237488,414.864899 381.543976,414.756134 381.959381,414.810760 
	C381.878754,414.979736 381.689209,414.985291 381.215302,414.982269 
z"/>
<path fill="#0F2D55" opacity="1.000000" stroke="none" 
	d="
M305.911530,318.832367 
	C305.696320,318.936432 305.488617,318.764130 305.309570,318.308228 
	C305.532806,318.208313 305.726410,318.385437 305.911530,318.832367 
z"/>
<path fill="#0F2D55" opacity="1.000000" stroke="none" 
	d="
M320.907013,368.847931 
	C320.682892,368.952698 320.466980,368.767792 320.270935,368.290680 
	C320.501404,368.185913 320.709534,368.372528 320.907013,368.847931 
z"/>
<path fill="#0F2D55" opacity="1.000000" stroke="none" 
	d="
M319.005615,362.736694 
	C318.888580,362.719147 318.766052,362.435760 318.803406,362.046387 
	C318.975555,362.117188 318.987823,362.294006 319.005615,362.736694 
z"/>
<path fill="#0F2D55" opacity="1.000000" stroke="none" 
	d="
M314.881714,345.815277 
	C314.663086,345.924957 314.407227,345.730591 314.104431,345.240479 
	C314.331665,345.112885 314.593964,345.301727 314.881714,345.815277 
z"/>
<path fill="#FEF7F1" opacity="1.000000" stroke="none" 
	d="
M582.035645,594.162903 
	C582.144165,586.738647 582.147522,586.606201 588.972351,586.779724 
	C594.089294,586.909851 599.214478,587.271912 604.301697,587.838806 
	C608.450562,588.301147 611.376770,590.294312 611.878601,594.983582 
	C612.639893,602.096741 611.087097,607.901978 606.685059,608.597290 
	C599.225952,609.775330 591.560303,609.716064 583.974792,609.893188 
	C583.355225,609.907593 582.197266,607.779602 582.127258,606.597534 
	C581.891846,602.623718 582.035522,598.627441 582.035645,594.162903 
z"/>
<path fill="#FDF8F4" opacity="1.000000" stroke="none" 
	d="
M258.999451,604.340332 
	C261.911011,595.357727 266.419342,588.741211 275.988251,586.214233 
	C285.471619,583.709839 292.659698,587.285034 298.795593,593.567444 
	C305.800598,600.739685 306.653534,613.204651 301.410126,621.282776 
	C295.076355,631.040710 284.746582,635.210632 274.354919,631.646790 
	C265.961670,628.768311 256.417664,619.365417 258.999451,604.340332 
z"/>
<path fill="#F05723" opacity="1.000000" stroke="none" 
	d="
M513.279785,599.533447 
	C513.435547,595.081848 513.761963,591.013428 513.391418,587.009460 
	C512.891907,581.612549 513.981323,579.984680 519.173157,579.972534 
	C529.500366,579.948425 539.828674,579.879578 550.153381,580.034790 
	C551.422791,580.053833 552.673340,581.329773 553.932617,582.023254 
	C552.696289,583.026917 551.490356,584.851990 550.218567,584.899109 
	C542.733215,585.176331 535.232544,585.033386 527.737000,585.043518 
	C520.798096,585.052917 519.218994,586.720398 519.041992,593.412842 
	C518.684937,606.911499 519.253479,607.284241 532.385742,606.989929 
	C537.047241,606.885498 541.732117,606.741272 546.366272,607.113525 
	C547.873047,607.234558 549.252625,608.938477 550.690430,609.918335 
	C549.219910,610.619507 547.743713,611.930664 546.279846,611.917053 
	C539.657349,611.855713 533.033386,611.498962 526.419739,611.090576 
	C522.151306,610.827026 518.673401,615.195923 519.088867,620.388733 
	C519.255127,622.466370 519.270569,624.583740 519.076172,626.656860 
	C518.649963,631.202698 520.911743,633.897156 525.642761,633.937256 
	C534.137146,634.009216 542.633179,634.015930 551.127136,633.921936 
	C553.737793,633.893127 555.331421,634.477295 555.032959,637.507202 
	C554.708130,640.803894 552.715149,639.584595 550.701904,639.529175 
	C546.435974,639.411682 542.156799,639.945435 537.880615,639.993469 
	C529.832153,640.083862 521.781982,640.019531 513.140015,640.019531 
	C513.140015,626.343811 513.140015,613.144531 513.279785,599.533447 
z"/>
<path fill="#053067" opacity="1.000000" stroke="none" 
	d="
M360.574707,494.121704 
	C359.706390,489.114349 358.985077,484.456818 358.318512,479.791443 
	C355.843689,462.470581 380.957336,448.670288 393.581665,455.911255 
	C405.548859,462.775299 412.725555,471.088654 411.781891,483.965576 
	C411.458191,488.382996 409.181305,493.203949 406.404694,496.750763 
	C403.229980,500.806244 398.518890,503.665131 394.448822,507.011688 
	C390.308746,510.415833 373.250610,508.218018 369.436523,504.300385 
	C366.388855,501.170013 363.632507,497.756012 360.574707,494.121704 
z"/>
<path fill="#083166" opacity="1.000000" stroke="none" 
	d="
M566.963013,474.336945 
	C568.736938,483.098389 568.028564,490.322540 562.329773,497.831512 
	C554.207336,508.533936 543.965088,510.445679 532.549927,507.580444 
	C527.582581,506.333710 523.002563,501.921570 519.202576,498.016693 
	C513.085327,491.730499 512.952698,483.519531 514.014404,475.298859 
	C515.156494,466.455811 525.948792,456.714050 535.163391,454.799774 
	C544.029236,452.957947 551.870667,454.132507 558.042297,460.643097 
	C561.646423,464.445160 563.967041,469.463898 566.963013,474.336945 
z"/>
<path fill="#0F2D55" opacity="1.000000" stroke="none" 
	d="
M563.652954,443.014771 
	C562.649231,443.282776 561.275391,443.543213 559.543335,443.733582 
	C560.551025,443.444733 561.916992,443.225952 563.652954,443.014771 
z"/>
<path fill="#0F2D55" opacity="1.000000" stroke="none" 
	d="
M497.680664,443.016663 
	C496.966339,443.284424 495.908081,443.543701 494.514038,443.733093 
	C495.231079,443.444916 496.283905,443.226562 497.680664,443.016663 
z"/>
<path fill="#0F2D55" opacity="1.000000" stroke="none" 
	d="
M512.780396,443.488159 
	C512.606628,443.684937 512.364502,443.596985 512.070557,443.200073 
	C512.232361,443.060242 512.463440,443.164368 512.780396,443.488159 
z"/>
<path fill="#0F2D55" opacity="1.000000" stroke="none" 
	d="
M480.778076,443.483948 
	C480.604187,443.681305 480.363190,443.593658 480.072479,443.195801 
	C480.233734,443.057831 480.463135,443.162292 480.778076,443.483948 
z"/>
<path fill="#0F2D55" opacity="1.000000" stroke="none" 
	d="
M384.602905,443.015137 
	C383.505371,443.186554 381.987274,443.349823 380.223053,443.268433 
	C381.378723,443.018158 382.780518,443.012573 384.602905,443.015137 
z"/>
</svg>